<?xml version="1.0"?>
<svg id="Layer_1" data-name="Layer 1" xmlns="http://www.w3.org/2000/svg" viewBox="0 0 828 882">
  <path d="M453.03,137.91c.57.69-.11,2.62,1.71,2.95,2.01.36,2.37-1,3.03-.94.53.04,1.7,1.62,2.75,2.03.69.27,2.53.56,3.41.73,7.77,1.42,15.45,2.51,23.08,4.43,5.11,1.29,14.52,5.49,19.09,5.98,1.18.13,2.2-.64,2.97-.4s2.36,2.34,3.74,2.97c2.23,1.01,4.89.89,6.87,1.41.7.18.78,1.09,1.23,1.29,4.55,2.01,10.5,3.75,14.3,6.13,4.54,2.86,11.59,4.8,16.17,7.27,1.63.88,5.73,4.59,7.63,5.18,1.19.37,2.51-.19,3.38.24.79.39,1.14,2.32,1.78,2.88.7.61,2.61.68,3.59,1.29,5.47,3.41,10.68,8.06,16.5,11.53s11.69,10.03,17.59,13.9c1.12.73,2.69.73,3.54,1.61.78.81.72,1.87,1.33,2.61,1.53,1.85,8.07,7.78,10.07,9.11.89.6,2.19.45,2.98,1.23.95.93,2.31,4.3,3.32,5.5s2.81,2.15,3.84,3.35c8.22,9.57,15.55,18.79,23.09,28.82,1.69,2.25,3.71,5.65,5.31,7.37,2.88,3.12,2.2,3.02,4.17,6.58,5.16,9.33,10.91,18.34,15.84,27.87,7.6,14.69,14.32,33.12,18.76,49.41,1.26,4.63,1.82,9.88,3.5,14.65,1.01,2.87.96,1.25,1.2,4.85.3,4.54,1.2,8.96,2.03,13.21,1.65,8.42,1.9,16.08,2.34,24.53.19,3.75,1.65,7.7,1.29,11.05-.48,4.47-.53,10.26-.5,14.82.01,1.99.98,5.87.86,7.08-.33,3.45-1.84,8.08-1.87,12.26,0,.61.42,5.34.52,5.61.29.77,1.41,1.26,1.96,1.88-1.03,1.2-2.96.67-3.19,2.62-.88,6.28-2.1,12.47-3.28,18.69-1.37,7.23-2.48,15.57-4.87,22.25-.37,1.04-1.09,2.86-1.3,3.82-.68,3.2-.16,2.63-1.47,5.9-1,2.49-.86,4.25-1.34,6.46-.34,1.59-3.8,8.64-4.65,10.34-2.34,4.69-3.56,10.21-5.82,15.14-8.71,18.98-19.85,38.04-32.42,54.94-2.87,3.86-6.39,7.4-9.18,11.35-.61.87-.7,2.26-1.17,2.81-1.06,1.23-3.52,2.22-5.31,4.61-2.34,3.12-5.17,5.73-8.04,8.75-.57.59-.77,1.43-1.31,2.01-9.42,10.09-20.89,19.12-31.65,27.82-1.09.88-2.64,1.36-3.63,2.25-.85.76-1.34,2.2-1.78,2.5-.7.48-1.98.41-3,1-8.85,5.13-18.28,13.85-27.25,17.72-6.89,2.97-13.56,6.81-20.43,10.16-22.46,10.97-57.06,19.76-82.43,23-4.87.62-11.96.31-16.29,1.19-1.26.26-2.16,1.17-3.26,1.25s-2.12-.69-3.41-.76c-2.26-.12-4.4.86-6.17.92-7.65.24-16.8-.54-24.7-1.01-4.72-.28-10.05-.13-14.39-.42-1.06-.07-1.82-1.21-3.05-1.23-1.05-.02-1.92.69-2.78.68-.74,0-2.43-1.21-3.63-1.52-2.2-.56-4.74-.46-7.01-.71-.91-.1-1.86-.83-2.78-.87-1.48-.06-2.93,1.69-3.99,1.46-.22-.05-2.17-2.07-3.73-2.46-12.1-3.06-24.84-6.43-37.07-10.03-.96-.28-1.9-1.33-2.75-1.49-2.08-.38-3.73.7-5.93-.92-.73-.54-1.27-1.91-2.13-2.21-1.14-.4-2.46.23-3.39-.23-.55-.27-.84-1.53-1.57-1.82-1.26-.5-3.21.37-4.53-.34-.66-.36-.75-1.79-1.98-2.51-2.87-1.7-8.51-2.8-10.83-4.08-4.73-2.59-9.4-6.41-14.45-8.71s-9.56-5.18-14.43-8.21c-.96-.6-2.18-2.41-3.42-2.79-.95-.29-2.74.02-2.86-.07-.1-.09-.06-1.27-.41-1.85-1.58-2.6-7.98-5.31-10.48-6.95-7.34-4.8-13.95-13.39-21.22-18.67-.95-.69-3.85-1.92-4.01-2.11-.42-.51-.37-1.56-.79-2.2-2.18-3.31-6.08-5.57-8.73-8.32-.72-.75-2.04-3.36-3.06-3.98-.96-.58-2.47-.06-3.02-.69.61-3.18-.9-2.79-2.16-4.23-1.46-1.66-4.49-3.68-4.67-3.94-.51-.73-.26-2.19-.73-3.31-.52-1.24-6.85-8.72-8.3-10.64-5.08-6.75-9.67-13.9-14.54-21.07-7.92-11.65-14.02-24.9-19.69-37.95-.83-1.92-1.7-5.24-4.07-4.89,1.23-3.54-1.13-4.61-2.06-7.21-.77-2.14-.5-4.05-.98-6.14-.86-3.73-3.36-7.92-4.46-11.45-1.42-4.56-1.91-11.1-3.68-15.47-.58-1.43-1.97-2.42-2.15-3.26-.31-1.43.72-2.79.62-4.29-.16-2.44-1.57-6.84-2.1-9.53-2.07-10.47-3.65-22.38-4.4-33.38-.28-4.09.44-9.62-.02-13.41-.14-1.11-1.16-2.07-1.17-3.29,0-2.5.77-7.14.93-10.18,1.17-22.28,3.47-43.41,9.08-65.02,2.91-11.2,7.07-22.13,11.34-32.8,1.1-2.75,4.28-9.35,4.77-11.56.34-1.51-.04-2.48-.35-3.87,3.33-.69,2.31-2.27,3.41-4.25.51-.92,1.39-1.54,1.88-2.41,2.04-3.6,3.8-7.62,5.5-10.95.4-.79-.12-1.98.14-2.35.14-.19.95-.18,1.28-.44,2.37-1.95,6.15-10.87,8.17-14.04,4.68-7.33,10.64-14.14,15.56-21.54.89-1.34,2.4-4.42,2.72-4.82.44-.56,2.15-1.13,2.99-1.9,3.15-2.89,6.08-7.79,9.04-11.03s7.53-8.2,10.52-11.1c1.77-1.71,3.88-2.27,5.39-4.76.4-.66.31-1.87.69-2.31.57-.66,2.27-.59,3.16-1.08,2.18-1.22,5.27-6,7.39-7.51,3.81-2.73,7.95-5.29,11.85-8.15,6-4.42,11.79-8.77,17.81-12.87.68-.46,1.69-.59,2.37-1.09.85-.63,1.03-1.73,1.22-1.86.53-.35,1.85-.13,2.77-.53,2.58-1.12,4.75-3.43,7.01-4.71,3.59-2.04,7.42-3.62,10.94-5.8,6.32-3.9,13.31-5.97,20.06-9.13,1.39-.65,2.12-2.48,3.02-2.8,1.18-.43,2.33.29,3.62.06,1.55-.28,4.81-2.27,6.57-2.89,6.85-2.4,13.6-4.51,20.29-7.16,1.91-.75,4.28-.01,6.17-.5.98-.25,1.49-1.22,2.41-1.51,3.11-.96,7.96-1.27,11.29-1.9,22.04-4.22,45.99-7.44,68.83-6.45,1,.04,1.83.84,2.97.75,1.25-.09,2.03-1.22,3.24-1.23,1.04-.01,2.05.92,3.13,1.09,3.91.6,7.92.55,11.86.81,1.3.09,2.88,1.28,4.22.3.47-.34,1.35-3.4,2.67-1.78ZM522.34,174.45c-1.6-.86-1.49-1.83-4.63-2.68-4.13-1.12-2.71-1.06-5.82-2.6-1.5-.74-5.37-1.89-7.24-2.52-14.12-4.73-28.53-7.58-42.73-10.75-2.98-.67-5.77.25-7.14,0-.86-.16-2.39-1.46-4.72-1.85-10.83-1.78-25.86-2.4-36.6-2.26-16.98.22-34.13,2.2-50.16,5.57-2.54.53-9.16-.05-8.13,3.52-2.26-2.31-4.28-1.71-7.05-.48-.89.4-1.29,1.4-2.26,1.65-1.41.36-2.61-.31-3.79-.16-7.73.99-32.59,10.12-39.2,14.14-.81.49-.88,2.14-2.2,2.6-.93.32-2.09-.35-3.49.09-1.14.36-2.81,1.96-3.92,2.46-6.58,2.99-13.31,6.09-19.73,9.87-8.85,5.22-17.81,11.38-25.88,17.56s-14.2,11.29-20.9,19.17c-1.39,1.64-5.88,2.53-6.93,5.22-.28.71-.12,1.84-.43,2.32-.15.24-3.46,1.54-4.62,2.74-1.72,1.77-3.06,5.18-4.3,6.6-.89,1.02-2.8,1.2-4.18,2.66-5.45,5.75-10.48,14.17-15.23,20.7-.73,1.01-3.22,1.9-2.39,3.87.38.9,2.51.78,1.8,2.11l-1.69.39-.58-1.67c-1.48-1.2-3.98,5.25-4.38,5.85-10.72,16.21-19.67,33.29-26.27,51.29-1.88,5.13-3.75,10.13-5.37,15.09-1.17,3.56-.8,6.16-1.41,9.09-.18.85-1.68,1.87-2.18,3.05-.69,1.62-.52,3.36-.95,5-3.19,11.99-5.07,25.14-6.68,37.26-1.81,13.6-1.58,31.42-.75,45.03.58,9.62,1.55,20.53,3.42,29.9.35,1.76,1.73,3.93,1.78,4.37.09.79-.7,1.91-.51,3.35.34,2.63,2.53,6.68,2.92,8.61,2.01,9.85,4.08,17.22,6.91,26.78.37,1.26.96,3.66,1.37,4.65.44,1.08,1.74.89,2.11,1.75s.57,3.99,1.04,5.5c3.68,11.67,11.61,26.31,17.87,36.95.85,1.44,3.15,5.9,4.06,6.73.72.66,2.11.74,2.49,1.27.81,1.14.15,3.25,2.41,6.04,8.36,10.35,15.88,22.02,24.98,32.34,5.1,5.79,11.8,11.95,17.36,17.28,18.15,17.4,44.92,35.26,67.54,45.88,1.72.81,10.73,4.65,11.85,4.28.81-.27,1.01-1.71,2.15-1.54.23.91-.66,2.09-.06,2.89.12.15,3.13,1.85,3.31,1.91,5.33,1.69,10.89,4.25,16.68,6.13,39.03,12.67,83.25,16.4,123.86,10.74.87-.12,1.46-1,2.34-1.08,1.01-.1,2.12.8,3.39.65,1.2-.14,4.39-1.14,6.08-1.49,5.37-1.13,10.56-2.58,15.87-4.16,1.73-.52,3.39,1.19,2.74-2.87,1.32.01,1.69,1.68,2.77,1.75,1.39.1,2.18-.98,3.3-1.21,5.75-1.21,10.63-2.38,16.26-4.35,21.35-7.45,41-17.81,60.08-29.73,1.15-.54.75-2.46,1.36-2.97,1.02-.86,4.44-1.08,5.94-1.94,1.85-1.07,5.97-4.31,8.28-5.86,1.44-.96,1.89-2.91,2.65-3.54.89-.73,2.16-.35,2.85-1.13.48-.54.47-1.89,1.22-2.53s1.94-.6,2.77-1.2c1.43-1.03,6.47-4.73,7.34-5.77.75-.88.85-2.1,1.49-2.75,1.19-1.2,4.2-2.48,6.16-4.54,6.44-6.78,12.95-13.8,19.18-20.66,1.04-1.15,3.17-3.49,4-4.62,1.01-1.38,1.09-3.23,1.63-3.97s2.01-.8,2.98-1.91c2.07-2.37,4.5-7.35,6.46-10.11,2.27-3.18,5.06-6.16,7.22-9.46,2.77-4.24,4.7-9.17,7.29-12.97,7.05-10.35,11.97-24.18,17.14-35.42.59-1.28,1.63-4.49,1.99-5.91.85-3.43,1.6-5.77,2.8-9.24,3.77-10.9,6.39-22.15,8.77-33.22.92-4.29.65-6.22.78-10.15.05-1.5,2.43-2.32-.41-4.35,3.44-2.49,1.99-2.98,2.04-5.81.02-1.13.96-2.37,1.05-3.58.45-5.62-.11-10.99-.19-16.29-.02-1.1.95-2.06,1.09-3.1.52-3.83.7-14.68-.25-18.18-.33-1.21-1.48-.91-1.6-1.38-.05-.2.24-3.86.31-4.18.17-.74,1.05-1.07,1.18-2.12.22-1.77-.99-11.32-1.28-13.85-1.09-9.64-3.54-26.99-6.53-35.76-1.26-3.7-1.48-3.42-2.12-7.36-.37-2.28-1.88-3.8-2.25-5.27-.22-.88.21-1.7.01-2.56-.49-2.11-2.88-2.65-2.94-2.94-.21-.92.85-1.91.67-3.22-.37-2.79-2.5-6.05-3.4-8.57-1.29-3.64-2.19-7.17-3.69-10.79-1.03-2.48-4.4-10.44-5.62-12.18-.86-1.23-1.99-1.34-2.58-2.21-.85-1.27-.59-3.05-1.12-4.41-1.27-3.3-3.96-7.38-5.74-10.48-.28-.49-2.17-2.7-2.55-2.79l-2.96,1.13c-.69-.64,2.23-2.64,1.99-4.15-.48-2.96-5.49-7.51-6.5-10.61-8.6-11.24-17.47-23.11-27.26-33.86-5.77-6.34-12.01-11.27-18.29-16.72-.89-.77-1.21-2.18-2.6-3.22-1.06-.78-2.99-1.16-3.51-1.65-.75-.72-.51-1.91-1.88-3.02-1.18-.96-2.27-.75-3.12-1.32-2.64-1.78-6.11-6.22-8.9-8.12-6.06-4.13-12.43-7.71-18.63-11.65-4.34-2.76-7.54-7.51-13.36-4.51-.17-1.35.65-2.76-.52-3.83l-2.6.2c-.42-1.87-2.95-3.38-4.6-4.29-4.8-2.64-12-4.31-15.81-6.36Z"></path>
  <path d="M694.05,605.46c-2.14-1.9,2.4-4.16,3.28-3.03,1.47,1.88-2.07,4.11-3.28,3.03Z"></path>
  <path d="M150.16,128.3l-.29,2.21-2.88.42c-.56-1.99,1.69-2.44,3.17-2.63Z"></path>
  <path d="M695.14,294.2l1.08-2.45,1.7,1.05c0,1.75-1.8.56-2.78,1.4Z"></path>
  <path d="M614.24,169.28l.61,2.06-1.83.91c-.15-1.13-.5-2.96,1.22-2.97Z"></path>
  <path d="M697.64,629.86c.28,1.65-1.9,2.13-2.82.92.14-1.84,1.61-1.12,2.82-.92Z"></path>
  <path d="M570.2,139.79c.15.11,1.89,2.67,1.69,3.24-1.94.51-3.51-4.57-1.69-3.24Z"></path>
  <path d="M338.26,756.82c1.39,3.73-1.32,4.06-1.4.08l1.4-.08Z"></path>
  <path d="M708.57,313.43c.33.29.18,2.65-1.01,2.48-1.87-.28-.16-3.49,1.01-2.48Z"></path>
  <path d="M91.63,432.34c.29-.33,2.65-.18,2.48,1.01-.28,1.87-3.49.16-2.48-1.01Z"></path>
  <path d="M720.1,417.95c1.15.94-1.4,2.45-2.25,2.08-.51-1.33,1.37-2.8,2.25-2.08Z"></path>
  <path d="M219.74,715.46c-1.04,1.18-3.47-1.22-1.81-1.78,1.4-.47,2.25,1.28,1.81,1.78Z"></path>
  <path d="M214.78,742.77c1.52-.46,2.04,2.24.65,2.35-.56.04-2.06-1.92-.65-2.35Z"></path>
  <path d="M631.76,171.84c.15,1.59.6,2.23-1.25,1.96l-.66-1.82,1.91-.14Z"></path>
  <path d="M589.94,179.24l.6,1.61c-1.8,2.35-2.77-1.64-.6-1.61Z"></path>
  <path d="M178.27,726.73l1.38-.15c.08.7.24,1.26-.34,1.72"></path>
  <path d="M123.96,492.51c.4.25.72,2.15-.57,1.96-1.96-.29-.8-2.81.57-1.96Z"></path>
  <path d="M681.95,547.29l.11,1.43c-1,.13-1.78.31-2.43-.54.52-.94,1.33-.88,2.33-.89Z"></path>
  <path d="M106.64,433.64l-2.42-.31-.07-.95c1.17-.22,2.52-.21,2.49,1.26Z"></path>
  <polygon points="534.92 734.18 533.86 736.17 533.15 736.23 533.27 734.77 534.92 734.18"></polygon>
  <path d="M572.64,159.82c.17,1.3-.59,2.12-1.73,2.53-.26-1.15.4-2.5,1.73-2.53Z"></path>
  <path d="M285.14,760.45l-.05-.71,1.91-.14"></path>
  <path d="M400.32,113.78l.14,1.91-.71.05c-.79-.45-.91-.96-.86-1.85l1.43-.11Z"></path>
  <path d="M563.04,736.92l-1.91.14-.1-1.43c.87-.18,1.4-.13,1.96.58l.05.71Z"></path>
  <path d="M235.62,145.11c-2.6.8-3.48-2.17-1.05-1.12.33.14.94.72,1.05,1.12Z"></path>
  <path d="M653.83,649.43l.14,1.91-.71.05c-.79-.45-.91-.96-.86-1.85l1.43-.11Z"></path>
  <path d="M123.47,348.21l-1.91.14-.1-1.43c.87-.18,1.4-.13,1.96.58l.05.71Z"></path>
  <path d="M294.49,710.94l.11,1.43-1.91.14-.05-.71c.45-.79.96-.91,1.85-.86Z"></path>
  <path d="M449.67,739.95l-1.43.11c-.36-2.38,1.44-2.51,1.43-.11Z"></path>
  <path d="M398.3,754.8c.14,1.88-1.76,2.04-1.91.14l1.91-.14Z"></path>
  <path d="M712.07,406.98l-1.43.11c-.36-2.38,1.44-2.51,1.43-.11Z"></path>
  <path d="M145.11,151.28c.3-.32,1.91.08,1.96.58.12,1.43-2.81.34-1.96-.58Z"></path>
  <path d="M123.27,456.96c-.06.08-1.56-.61-1.75-.82-1.4-1.48,1.82-1.12,1.75.82Z"></path>
  <path d="M162.13,599.41c-.3.32-1.91-.08-1.96-.58-.12-1.43,2.81-.34,1.96.58Z"></path>
  <path d="M643.92,684.8c.72,2.15-3.14-.05-2.46-.79l2.46.79Z"></path>
  <polygon points="744.99 625.89 745.13 627.8 744.18 627.87 743.62 626.71 744.28 625.95 744.99 625.89"></polygon>
  <path d="M394.45,99.29l.11,1.43-1.43.11c-.22-.89.44-1.63,1.33-1.54Z"></path>
  <path d="M662.68,710.84l-.07-.95c2.46-.37,2.5,1.75.07.95Z"></path>
  <path d="M84.83,352.97c.73.59-.75,1.81-1.84,1.09-.05-.81,1.47-1.39,1.84-1.09Z"></path>
  <path d="M680.49,291.42c-.38-.01-.9.17-1.19.09-1.81-.55-.44-2.8,1.19-.09Z"></path>
  <path d="M85.97,375.02c.13.1.06.65-.16.97-1.6,2.3-1.67-2.38.16-.97Z"></path>
  <rect x="641.07" y="225.49" width=".95" height="1.91" transform="translate(-14.86 47.59) rotate(-4.2)"></rect>
  <path d="M107.13,145.41c.12,1.76-1.29,1.86-1.43.11l1.43-.11Z"></path>
  <path d="M501.58,129.44l.11,1.43c-1.76.12-1.86-1.29-.11-1.43Z"></path>
  <polygon points="98.44 262.97 97.79 263.97 96.55 263.34 97.21 262.58 98.44 262.97"></polygon>
  <path d="M653.45,244.34l-.09,1.93c-.77-.46-.91-.97-.86-1.86l.95-.07Z"></path>
  <polygon points="136.94 623.39 137.04 624.82 135.61 624.93 135.99 623.46 136.94 623.39"></polygon>
  <path d="M122.37,326.64l-.11-1.43c1.76-.12,1.86,1.29.11,1.43Z"></path>
  <path d="M102.3,328.59l-.11-1.43c1.76-.12,1.86,1.29.11,1.43Z"></path>
  <polygon points="709.01 450.51 709.6 451.91 708.17 452.02 708.06 450.59 709.01 450.51"></polygon>
  <rect x="158.3" y="284.5" width="1.44" height=".95" transform="translate(-20.44 12.41) rotate(-4.2)"></rect>
  <path d="M199,655.88c.78.67-1.27,2.14-1.37.82-.02-.32,1.08-1.07,1.37-.82Z"></path>
  <path d="M166.23,216.12c-.67.78-2.15-1.27-.82-1.37.32-.02,1.07,1.08.82,1.37Z"></path>
  <rect x="703.3" y="562.04" width=".95" height="1.43" transform="translate(-39.32 53.05) rotate(-4.2)"></rect>
  <polygon points="695.31 296.59 695.4 294.67 696.21 295.8 695.31 296.59"></polygon>
  <rect x="82.9" y="358.84" width="1.44" height=".95" transform="translate(-26.09 7.09) rotate(-4.2)"></rect>
  <polygon points="97.64 501.18 96.25 501.76 96.14 500.33 96.85 500.28 97.64 501.18"></polygon>
  <rect x="228.01" y="709.51" width="1.44" height=".95" transform="translate(-51.38 18.66) rotate(-4.2)"></rect>
  <rect x="265.83" y="713.01" width=".95" height="1.43" transform="translate(-51.55 21.42) rotate(-4.2)"></rect>
  <path d="M729.87,550.99c.67-.78,2.15,1.27.82,1.37-.32.02-1.07-1.08-.82-1.37Z"></path>
  <path d="M697.87,593.75c-.67.78-2.15-1.27-.82-1.37.32-.02,1.07,1.08.82,1.37Z"></path>
  <path d="M168.14,176.53c-.67.78-2.15-1.27-.82-1.37.32-.02,1.07,1.08.82,1.37Z"></path>
  <path d="M254.55,743.7c-.78-.67,1.27-2.14,1.37-.82.02.32-1.08,1.07-1.37.82Z"></path>
  <path d="M89.91,271.29c.78.67-1.27,2.14-1.37.82-.02-.32,1.08-1.07,1.37-.82Z"></path>
  <rect x="118.72" y="158.46" width="1.44" height=".95" transform="translate(-11.32 9.17) rotate(-4.2)"></rect>
  <rect x="641.61" y="180.7" width=".95" height="1.43" transform="translate(-11.56 47.51) rotate(-4.2)"></rect>
  <path d="M150.15,81.14l-3.98-1.87c1.84-1.84,5.13-.97,3.98,1.87Z"></path>
  <path d="M179.27,58.32l-2.94-.75,1.51-2.51c1.41-.42,1.46,2.41,1.43,3.26Z"></path>
  <path d="M140.11,108.35c-.37.6-2.33.66-2-1.05s2.72-.13,2,1.05Z"></path>
  <path d="M150.04,125.42c-.19-.88-.13-1.66.81-1.98.19.88.13,1.66-.81,1.98Z"></path>
  <rect x="95.52" y="83.68" width=".95" height="1.43" transform="translate(-5.92 7.26) rotate(-4.2)"></rect>
  <path d="M95.47,598.65l-2.94-.75,1.51-2.51c1.41-.42,1.46,2.41,1.43,3.26Z"></path>
  <polygon points="83.65 568.73 83.75 570.16 83.04 570.21 81.27 569.14 83.65 568.73"></polygon>
  <path d="M763.96,504.83l1.87-3.98c1.84,1.84.97,5.13-1.87,3.98Z"></path>
  <path d="M786.79,533.95l.75-2.94,2.51,1.51c.42,1.41-2.41,1.46-3.26,1.43Z"></path>
  <path d="M736.76,494.79c-.6-.37-.66-2.33,1.05-2s.13,2.72-1.05,2Z"></path>
  <path d="M719.68,504.72c.88-.19,1.66-.13,1.98.81-.88.19-1.66.13-1.98-.81Z"></path>
  <rect x="759.99" y="450.21" width="1.43" height=".95" transform="translate(-30.96 56.92) rotate(-4.2)"></rect>
  <path d="M760.11,261.94l1.87-3.98c1.84,1.84.97,5.13-1.87,3.98Z"></path>
  <path d="M732.9,251.9c-.6-.37-.66-2.33,1.05-2s.13,2.72-1.05,2Z"></path>
  <path d="M715.83,261.83c.88-.19,1.66-.13,1.98.81-.88.19-1.66.13-1.98-.81Z"></path>
  <path d="M721.32,816.49l1.51-2.51"></path>
  <path d="M617.75,756.25c.58-1.36,2.51-2.95,3.74-1.46l-1.04,2.16-2.71-.7Z"></path>
  <path d="M684.02,754.28c.18.87.13,1.4-.58,1.96l-.71.05-.14-1.91,1.43-.1Z"></path>
  <polygon points="712.44 787.32 712.54 788.75 711.83 788.8 710.06 787.73 712.44 787.32"></polygon>
  <polygon points="687.24 739.13 686.59 740.14 685.35 739.51 687.24 739.13"></polygon>
  <polygon points="337.09 791.51 337.07 790.8 338.47 789.55 338.53 791.47 337.09 791.51"></polygon>
  <path d="M405.05,783.05l.03.95c-2.47.25-2.42-1.87-.03-.95Z"></path>
  <path d="M483.45,166.02c.46.16,2.29,1.66,3.79,2.08,14.1,3.98,27.17,8.24,40.53,14.34,4.4,2.01,8.59,4.75,12.99,6.76,1.48.68,3.9.78,4.74,1.26,2.82,1.62,6.09,5.29,9.21,6.47.97.37,3.64.42,3.78.55.23.21.12,1.79.88,2.63,1.21,1.34,6.71,4.02,8.66,5.28,1.18.77,2.54,2.58,3.59,3.11,2.59,1.32,4.77,2.3,7.08,4.26,3.18,2.71,6.16,5.79,9.25,8.5,1.08.94,4.3,2.26,4.67,2.65.34.36.52,1.56,1.26,2.44,1.27,1.5,4.03,2.96,5.61,4.39,4.44,4,8.65,8.13,12.68,12.34,1.21,1.26,3.16,4.94,4.76,5.91.82.5,2.1.21,2.2.3.11.1.05,1.92.48,2.82.8,1.66,3.85,3.12,4.39,3.88s.58,2.13,1.23,3.12c.75,1.14,2.01,1.27,2.51,1.9.68.87,1.21,2.9,2.13,4.16,2.65,3.65,7.06,7.7,9,10.86.65,1.05.52,2.21,1,3,.4.65,1.33.61,1.79,1.17.7.85,3.36,5.88,4.24,7.41,4.38,7.59,8.13,15.97,12.34,23.61.59,1.07,3.02,3.51,3.22,4.1.35,1.03-.42,2.21-.06,3.62.48,1.9,2.81,3.06,3.41,5.34.16.6-.22,1.36.03,2.1.34,1,2,2.08,2.35,3.09.4,1.15-.26,2.14.06,3.48.59,2.48,2.85,5.71,3.63,7.79,4.89,13.11,6.4,29.24,9.67,42.79.37,1.54,1.54,3.3,1.72,4.8.27,2.22-.37,5.03.08,7.65.18,1.05,1.02,1.59,1.11,2.27.95,7.39.64,16,.84,23.57.38,14.44-.56,26.55-1.86,40.97-.08.93-.72,1.71-.75,2.54-.05,1.5,1.26,2.66,1.17,3.19-.08.46-1.49,1.01-1.97,2.35-.21.57-1.19,4.8-1.19,5.26-.05,5.02-1.42,7.4-2.44,12.23-.7,3.28-.88,9.07-1.79,11.9-.33,1.03-1.55,2.04-2.11,3.56-1.55,4.16-2.55,8.9-4,13.13-4.32,12.66-11.35,29.92-18.68,40.8-.46.69-1.58,2.35-1.73,3.03-.42,1.99,1.37,3.21-.5,5.81-.95,1.33-.86-1.28-1.96-.8-1.93.87-1.16,3.21-1.5,3.86-.12.22-1.39.47-1.98,1.21s-.7,2.06-1.28,2.93c-.68,1.04-2.15,2.16-2.51,3.23-.43,1.27.27,2.56.13,2.77-.37.58-1.8.59-2.48,1.01-2.56,1.59-3.42,5.39-5.02,7.55-3.45,4.66-8.91,9.56-12.51,14.53-1.56,2.16-2.63,3.64-2.68,6.43-4.11-1.08-5.03,2.67-7.29,5.13-7.21,7.83-15.98,13.93-23.7,21.23-5.45,5.16-12.28,9.94-18.57,14.34-6.72,4.71-15.35,8.17-21.95,13.45-1.11.89-1.77,2.7-2.23,3.04-.55.4-1.77-.21-2.63-.1-2.63.33-7.21,3.51-9.68,4.69-3.25,1.55-5.79,2.23-9.01,3.43-2.24.83-4.97,3.26-6.54,3.77-9.06,2.95-18.5,5.53-27.56,8.49-8.19,2.68-18.44,5.19-27.02,6.94-1.6.33-3.41-.92-4.78,1.51-3.55-2.85-7.63-.1-11.03.32-5.89.73-12.23.67-18.16.87-16.81.57-33.47.27-50.12-2.19-1.52-.22-3.37-1.35-4.67-1.39-5.52-.17-7.55-1.07-12.88-2.17-2.43-.5-5.76-1.25-7.78.2-2.19-3.77-3.73-1.81-6.09-2.29-1.58-.32-1.84-1.49-2.82-1.99-1.69-.86-4.67-1.02-6.58-1.67-6.74-2.29-13.11-4.54-19.76-6.71-.77-.25-1.31-1.15-2.02-1.31-1.44-.32-2.57.56-3.92.67-.49-3.85-3.96-3.3-6.46-4.21-1.16-.43-2.95-2.26-4.54-3.06-2.86-1.44-8.08-2.93-10.26-4.21-1.03-.61-1.59-2.05-2.95-2.81-1.48-.82-4.09-.98-5.35-1.59-.91-.44-3.22-3.24-5.21-4.36-28.66-16.02-56.6-42.96-76.27-69.38-2.71-3.63-7.43-9.04-9.8-12.67-1.17-1.79-1.76-4.5-3.25-6.62-3.57-5.07-5.82-10.93-9.27-16.13-.29-.44-1.2-.42-1.45-1.03-.36-.9-.18-2.09-.7-3.37-.69-1.71-2.53-2.38-3.14-3.63-.27-.55-1.63-3.7-1.77-4.18-1.92-6.78-4.52-12.11-7.12-18.75-1.09-2.79-.27-5.32-3.96-6.33,2.39-3.77-.71-6.43-1.68-9.98-2.42-8.9-5.07-19.36-6.89-28.37-.41-2.03-.2-5.89-.66-7.5-.24-.85-1.24-1.4-1.39-2.01-.4-1.64.18-6.2-.26-8.6-.2-1.07-1.07-1.67-1.14-2.29s.69-1.78.75-2.93c.09-1.92-.79-3.38-.87-4.79-.43-8.63.64-19.33-.05-27.41-.1-1.21-1.08-1.91-1.15-2.78-.08-.99,1.03-2.22,1.13-3.48.15-1.82-.65-3.15-.67-4.61-.03-1.76,1.31-3.88,1.28-5.63-.02-1.09-.69-2.04-.6-3.17.09-1.26,1.28-1.83,1.19-3.99-.12-2.68-1.75-1.23-2.21-3.43l2.15-.61c-.26-1.24.71-2.55.82-3.36.28-1.95.1-4.73.66-7.01.9-3.71,2.57-6.72,2.47-10.88-.05-1.94-1.74-1.97.93-3.67,1.76-8.74,4.46-17.24,7.05-25.75.42-1.39,1.83-4.69,1.91-5.07.25-1.18-.37-2.59-.1-3.67.18-.73,1.42-1.12,1.94-1.91.81-1.25,2.22-4.82,2.56-6.3,1.51-6.49,2.31-8.5,6.08-14.02,1.23-1.81,2.27-4.17,3.22-6.18,1.88-3.96,4.25-8.94,6.46-12.8,1.14-1.99,5.09-6.64,5.64-8.16.4-1.1-.27-1.69-.29-2.56-.04-1.43,3.18-2.71,4.37-4.2.82-1.02,1.01-2.16,1.68-3.03,7.47-9.87,15.21-21.01,23.33-30.07.56-.62,1.87-.89,2.3-1.6.59-.97.02-2.39.69-2.99.45-.4,1.88-.45,2.62-.88,1.65-.95,12.51-10.87,14-12.57.82-.94.61-2.34,1.1-2.87.52-.57,3.28-1.49,4.01-2.14,13.69-12.12,30.37-22.38,46.42-32.11,6.05-3.67,13.47-5.65,20.2-9.46,1-.56,1.52-1.76,2.74-2.12,2.91-.88,6.05-1.37,9.13-2.43,6.23-2.14,12.45-4.7,18.72-6.71,3.55-1.14,9.31-1.81,12.42-3.18.83-.36,1.23-1.45,2.09-1.72,1.56-.48,7.45-.16,9.89-.5,7.7-1.06,16.15-3.8,23.72-4.55,9.82-.97,19.92-.4,29.78-.8,3.85-.16,5.39-.51,9.18-.24,4.26.3,5.71-.48,9.76.64,1.25.35,4.6.45,6.2.61,7.8.8,16.21,1.55,24.05,2.78,1.63.25,3.78,1.53,5.36,1.59,1.33.05,2.39-.69,3.97-.46s2.38,1.81,3.87,2.27,4.07.06,5.22.47ZM506.98,181.86c-.31-.15-.9-1.8-2.31-2.25-1.08-.35-2.09-.02-2.92-.26-4.4-1.23-9.37-3.95-14.22-5.34-1.79-.51-7.79-2.25-9.21-2.37-.94-.08-1.72.53-2.52.39s-1.66-1.22-2.71-1.55c-5.61-1.78-12.68-2.54-18.2-3.33-8.22-1.18-16.32-1.72-24.58-2.17-4.07-.22-7.83-.71-11.66-1.03-6.57-.55-16.92.66-23.46,1.22-11.19.95-23.04,2.12-34.32,4.45-3.53.73-8.83,1.66-12.02,3.08-.44.19-.77,1.07-1.15,1.12s-1.12-.66-1.95-.64c-3.47.11-5.14,2.43-7.24,3.15-1.12.39-4.25.3-5.87.75-4.57,1.28-15.14,4.95-18.76,7.59-.53.39-.59,1.35-1,1.47-.87.26-1.91-.3-2.74-.16-3.99.65-10.86,5.46-14.41,7.21-2.59,1.27-8.33,2.44-10.03,5.26-.4.66-.28,1.66-.33,1.72-.1.11-1.94-.46-3.01-.18-.47.12-7.29,4.01-8.23,4.59-5.71,3.53-10.95,8.18-16.26,11.97-2.4,1.71-7.39,3.18-6.42,6.79-1.24.16-3.21.36-4.23,1.06-.69.48-.65,1.36-1.18,1.78-4.09,3.27-13.31,10.18-16.23,14.12-2.76,3.73-3.04,3.29-6.23,6.28-4.25,3.98-10.66,11.96-14.44,16.67-17.37,21.6-31.74,46.75-40.12,72.94-.32.99-2.19,3.21-2.69,4.43-3.15,7.79-4.95,17.72-7.01,25.77-.77,3.02-2.91,6.65-2.54,9.97.13,1.16,1.3,1.75,1.14,2.67-.15.86-2.01,2.03-2.47,3.29-1.25,3.39.64,5.41-.05,8.02-.37,1.41-1.39,1.79-1.6,2.66-.31,1.31-.1,3.94-.31,5.56-2.11,16.52-2.17,34.79-.91,51.7.29,3.86.82,14.17,2.79,17.03.52.76,1.34,1.22,1.98,1.85-2.34,1.83-1.74,4.15-1.41,6.83.38,3.08,2.78,7.06,2.92,8.04.09.62-.73,1.18-.72,1.89,0,1.03,1.47,2.95,1.71,4.28,1.43,7.78,3.59,14.77,5.73,22.4.46,1.65,2.1,3.05,2.4,4.01.28.87-.26,1.72,0,2.54.81,2.64,2.53,8.2,5.69,8.23.36,1.13-1.3,1.55-1.24,2.72.01.23,1.47,3.73,1.73,4.24,1.05,2.1,1.85,3.9,4.61,3.75.55,1.24-.61,2.21-.71,3.2-.16,1.73,2.39,5.68,3.33,7.52,8.25,16.08,18.78,31.29,30.37,44.79.64.74.62,1.89,1.2,2.77.72,1.09,8.68,9.94,9.61,10.67.66.52,1.93.64,2.14.9,1.66,2.09,1.37,2.32,3.81,4.66,5.38,5.17,11.77,12.53,17.6,17,2.05,1.57,5.66,3.22,7.56,4.75,3.18,2.56,7.37,7.68,11.34,9.71,1.07.55,2.27.41,2.92.78.73.41.74,1.47,1.26,1.92,1.12.95,4.69,2.98,6.24,3.94,22.54,13.93,49.95,25.82,75.59,32.41,1.93.5,9.09,2.16,10.67,2.21,1.3.04,2.68-.68,3.54-.51,1.33.26,2.33,1.85,4.95,2.13s7.83-.27,9.78.03c.78.12,1.31,1.37,2.23,1.59,3.48.81,11.72,1.48,15.55,1.72,5.91.37,12.1-.46,18.04-.69,5.2-.2,10.8,1.59,16.96.68,9.47-1.39,19.41-1.95,29.06-3.64.88-.15,1.5-.96,2.33-1.05s1.72.42,2.89.21c2.26-.42,2.64-2.94,3.22-3.11,2.13,1.42,3.28.77,5.68.36,9.07-1.56,19.71-4.78,28.74-7.84,11.49-3.89,22.32-9.97,33.06-15.4,3.4-1.72,7.2-2.94,10.59-5.2,1.77-1.18,2.68-3.51,3.64-4.03s2.02-.32,2.83-.7c3.56-1.65,5.57-4.1,8.66-5.98,4.78-2.91,8.69-4.28,13.05-8.46.73-.7.95-2.03,1.97-2.79,1.23-.92,2.52-.77,3.8-1.65,6.43-4.4,13-11.95,18.59-17.57,4.21-4.24,9.58-9,13.42-13.52.77-.91,4.78-5.7,5.13-6.34.43-.8.17-1.7.4-2.11.43-.76,4.67-1.51,3.4-4.69-.35-.31-2.74,1.57-2.92-.5l2.03-.9,1.53,1.31c1.23-.18,5.56-5.89,6.25-7.19.47-.88.35-2.35.66-2.79.3-.42,1.3-.4,1.65-.81.44-.53.22-1.74.67-2.34s1.38-.57,1.83-1.11c.67-.78.34-2.1.78-2.92.31-.58,1.97-1.63,2.67-2.62,3.06-4.36,6.39-10.46,8.96-15.13,3.1-5.62,5.36-11.98,8.08-17.22,7.38-14.24,12.21-31.62,15.62-47.05.43-1.95,1.9-5.31,2.05-7.25.09-1.18-.71-1.99-.54-3.08s1.8-2.37,1.98-3.26c.22-1.08-.23-2.2-.12-3.24.67-5.81,2.31-11.79,2.7-17.88.17-2.62-.72-5.83-.27-8.26.2-1.07,1.05-1.82,1.09-2.57.05-1.16-.82-2.9-.66-4.68.1-1.21.95-2.08,1.07-3.11,1.3-11.17-.52-28.94-2.22-39.77-.99-6.33-1.24-12.59-2.53-18.88-1.79-8.76-4.73-20.19-7.54-28.65-.21-.63-1.11-2.67-1.69-2.74l-1.76,1.05-1.21-1.06c.26-1.35,1.99-3.81,1.84-4.82-.32-2.09-1.89-4.39-2.66-6.33-1.37-3.51-2.45-7.46-3.94-11.02-.29-.69-1.49-3.08-1.87-3.55-.73-.91-2.35-1.12-2.71-2.09s.22-1.97-.03-3.03c-.35-1.47-3.17-6.69-4.01-8.35-6.56-12.92-14.81-26.23-23.79-37.87-2.59-3.36-5.86-5.42-7.73-7.66-.69-.83-.56-2.16-1.23-3.25-1.67-2.73-8.28-9.19-10.89-11.79-3.07-3.06-6.55-5.44-9.51-8.2-1.24-1.16-1.67-2.88-3.72-4.52-7.42-5.92-14.96-12.74-23.01-18.53-2.26-1.63-10.08-8.03-12.44-7.17-.41.15-.74.61-1.02.94-1.15-.61-.66-1.95-1.03-2.95-.12-.31-4.58-3.31-5.31-3.72-11.65-6.4-23.27-12.6-35.93-17.07-.78-.27-1.35-1.15-2.02-1.3-1.1-.23-2.69.39-3.41.05Z"></path>
  <path d="M586.74,214.12l-.38,1.47-.95.07c-.22-.89.44-1.63,1.33-1.53Z"></path>
  <g>
    <path d="M442.42,318.39c-.65-.53-2.05.56-1.67,1.55.63.27,2.53-.85,1.67-1.55Z"></path>
    <path d="M465.29,318.83c.37.32,1.01.24,1.58-.06-.66-.37-1.31-.71-1.96-1.01-.1.34-.02.72.38,1.07Z"></path>
    <polygon points="503.24 335.42 503.13 334.01 502.61 334.05 502.11 334.61 502.53 335.47 503.24 335.42"></polygon>
    <path d="M384,516.03c-.51.55,2.36,2.18,1.83.59l-1.83-.59Z"></path>
    <path d="M526.88,483.4c-.21-.04-.42-.09-.63-.14-.12.4-.29.84-.51,1.31.65.04,1.28-.38,1.14-1.17Z"></path>
    <path d="M369.66,267.61l-.14-.07s.08.09.11.13l.03-.07Z"></path>
    <path d="M383.49,171.94c-.65-.53-2.05.56-1.67,1.55.63.27,2.53-.85,1.67-1.55Z"></path>
    <rect x="413.12" y="195.9" width="1.07" height=".71" transform="translate(-13.25 30.78) rotate(-4.19)"></rect>
    <path d="M468.13,310.12c.19-.22-.37-1.04-.61-1.02-.98.07.11,1.6.61,1.02Z"></path>
    <rect x="514.27" y="203.5" width="1.07" height=".71" transform="translate(-13.53 38.19) rotate(-4.19)"></rect>
    <path d="M518.61,241.12l-1.39,2.96c2.1.85,2.76-1.59,1.39-2.96Z"></path>
    <path d="M484.64,179.54c-.65-.53-2.05.56-1.67,1.55.63.27,2.53-.85,1.67-1.55Z"></path>
    <polygon points="316.19 286.92 316.09 288.44 316.67 287.14 316.19 286.92"></polygon>
    <polygon points="277.52 309.86 277.04 310.81 278.31 311.45 277.99 310.1 277.52 309.86"></polygon>
    <polygon points="437.59 463.91 437.1 464.86 438.37 465.5 438.06 464.15 437.59 463.91"></polygon>
    <polygon points="460.38 472.9 459.89 473.47 460.31 474.33 461.01 474.28 460.91 472.86 460.38 472.9"></polygon>
    <path d="M459.83,476.95l.44-.94c-2.63-1.35-3.37.53-.44.94Z"></path>
    <path d="M425.3,447.96c-.98.07.11,1.6.61,1.02.19-.22-.37-1.04-.61-1.02Z"></path>
    <path d="M528.79,414.19c.13.36,1.01.47,1.5.02.06-.37.11-.74.16-1.11-.5-.43-1.98.21-1.66,1.09Z"></path>
    <path d="M434.57,376.47l.39-.95-1.39.12c.09.54.52.64,1,.83Z"></path>
    <polygon points="476.16 442.49 476.74 441.19 476.26 440.98 476.16 442.49"></polygon>
    <polygon points="561.53 480.5 561.04 481.07 561.45 481.93 562.16 481.88 562.05 480.46 561.53 480.5"></polygon>
    <path d="M516.35,363.39c-1.07-1.02-1.95-2.26-3.07-3.25-.59-1.71,3.92-5.25,4.2-6.57.27-1.29-.49-2.19-.46-3.16.1-4.16,1.1-7.99.13-12.6l-3.66-6.16c-2.02-.53-1.12,1.79-2.71,1.59l-1.44-6.8c-3.03-.34-2.39-2.44-3.46-3.88-1.77-2.38-8.4-6.87-11.29-8.22-.98-.46-8.31-3.3-8.78-3.28-4.38.13.22,5.16.96,6.63,1.11,2.2,1.48,4.62,2.68,6.77.15.85.07.73-.68.79-2.5.22-3.89-2.38-5.79-3.69-10.2-7.05-19.77-16.02-31.74-19.32-3.07-.85-7.06-1.1-10.04-1.87-1.78-.45-3.4-1.89-5.18-2.3-3.28-.76-7.11-.04-9.88-3.1-1.92-2.13-.66-1.35-3.37-3.36-1.49-1.11-2.7-3.49-3.03-5.32-.65-3.73.92-12.27,3.21-15.17,1.19-1.5,3.69-2.62,4-3.05.33-.47.13-1.56.68-2.32,1.7-2.34,3.58-.22,4.23-.37.54-.13,1.22-1.7,2.39-1.92,2.42-.46,12.26,1.3,11.46-3.59-.55-3.38-2.2-3.01-4.12-4.09-.7-.39-.86-1.18-1.23-1.42-.49-.32-10.72-2.28-11.3-2.23-5.33.49-14.98,6.06-18.51,10.07-1.14,1.3-7.23,11.54-7.72,13.06-.63,1.97.48,5.02-3.02,5.07-1.52.02-1.78-1.04-2.59-1.21-2.6-.54-8.24-.26-10.93.26-1.84.35-3.24,2.39-5.53.38.16,1.49-.33,2.34-1.94,1.99-1.07-.23-6.98-11.47-8.83-13.67-.12-.14-.24-.27-.36-.41l-.41.91-.65-.29.44-.97.5.23c-6.54-7.33-17.75-11.79-26.81-6.05-.41.26-4.04,3.77-4.15,4.04-.5,1.23,0,3.19,1,4.05,2.38,2.06,8.93-2.47,13.52.95,1.58,1.18,2.21,3.04,3.17,4.63.63,1.03,2.14,1.56,1.74,3.08-.21.78-1.84.61-1.26,2.07.14.35,1.63.47,2.27,1.01,1.7,1.42,1.16,3.66,1.6,5.41.5,1.98,1.38,2.49,1.32,5.22-.04,1.59-2.64,9.15-3.58,10.36-2.91,3.76-11.66,5.1-16.18,5.24-5.35.17-10.79,1.16-16.1,2.76-.5.15-7.93,4.5-9.06,5.18-7.19,4.36-12.13,11.75-17.98,17.66-1.17,1.18-3.51,3.78-4.52,4.62-.71.59-1.82.71-2.29,1.16-.55.53-.51,1.76-1.49,2.75-1.86,1.88-3.93,1.61-5.59,5.04-.84,1.72.61,3.55,2.17,4.1.41.14,6.07.92,6.73.92,3.71-.03,7.97-.53,11.81-.58,17.24-.23,34.34-4.16,47.48-15.52.83-.72,3.79-3.14,4.42-1.45l-2.39,13.08,4.25,14.4c-1.23,2.62-.77,5.97-2.13,8.49-.78,1.45-2.81,1.86-3.03,2.76-.23.98.22,2.27-.04,3.55-.6,2.98-2.71,5.67-3.61,8.09-1.5,4.03-2.51,8.47-3.65,12.53-.94,3.34-2.92,13.86-4.29,16.02-.71,1.12-2.04.63-2.73,1.69,4.12,4.4-5.54,12.55,4.96,8.53,1.45,1.99-.81,3.96-.96,5.23-.03.28.21,4.98.28,5.65.11,1.14,2.24,6.58,3.25,6.67l1.8-.92c1.88.74,1.1,2.73,1.64,4.21.85,2.33,3.23,9.32,5.92,5.77l.65.1c1.64,2.39,3.66,4.56,5.1,7.09,1.15,2.02,5.71,12.02,5.57,13.77-.06.74-.91,1.43-.78,1.95.1.43,1.42,1.13,1.9,1.98,1.67,2.93,2.02,7.27,3.55,10.43.96,1.99,4.74,8.41,5.91,10.03.3.42,2.14.95,2.86,2.14.63,1.05.53,2.28,1.01,2.98.31.44,1.4.67,2,1.32,2,2.18,3.08,9.06,3.03,11.96-.03,1.78-1.31,3.84-1.03,5.39,1.45,8.03,8.5,15.21,9.48,23.91.46,4.13,1.17,13.23.72,17.21-.29,2.6-1.61,5.56-1.7,8.39-.06,2.11.87,4.68.78,6.04-.18,2.77-2.11,7.88-2.39,11.4-.3,3.72-.98,8.69,3.7,9.47,1.8-.62,2.8-5.43,4.5-5.06,1.74.37-.92,5.41,1.99,6.01,5.61,1.16,9.83-2.17,14.93-3.83,2.32.89.96,2.85,1.16,4.66,2.1-.84,5.08,1.44,6.69,1.34,1.93-.11,2.63-6.66,4.67-6.48,1.98.18,1.01,4.46,2.43,6.05,2.25,2.52,4.62.99,6.81.5,2.58-.58,4.09-1.3,6.21-1.85,1.75-.45,2.68.84,3.78-1.63.54-1.23,3.07-7.54,3.19-8.45.44-3.49-.61-7.11-.35-10.6,3.18-1.55,1.44-3.28,1.75-6.13.7-6.42,5.1-6.77,10.54-7.89,1.91,3.11-.09,5.46,4.33,7.04,5.27,1.87,3.49-2.2,7.35-3.06.07.95.14,2.85,1.05,3.33.54.29,4.79.52,5.74.5,2.92-.06,6.66-.8,9.4-1.64.46-.14.49-1.25,1.18-1.77,1.01-.77,2.24-.46,3.17-1.75,3.73-5.15.43-8.92,1.66-13.81.3-1.18,1.53-1.56,2.12-2.65.69-1.28.51-2.96,1.01-3.94.33-.65,2.09-1.24,2.2-2.25.07-.7-.98-1.41-1.04-2.26-.05-.77.66-1.44.7-2.08.07-1.11-.73-2.31-.58-4.07,1.11-13.41,10.78-29.17,16.88-41.02.94-1.82,3.64-5.48,4.9-8.18-.35-.02-.71-.18-.95-.49.08-1.05.75-.98,1.46-.82.09-.32.15-.62.16-.87.02-.97-.85-1.72-.34-3.04.73-1.88,3.86-.27,5.48-.89-.96-1.75.6-4.18.57-5.09-.03-.89-1.73-3.13-2.1-4.3-.85-2.68-3.41-13.7-3.1-15.9.36-2.64.42-2.51.49-5.36.12-5.04,4.96-12.96,6.17-17.58,4.5-17.3,7.27-28.59-.01-45.73-4.46-10.48-9.47-13.71-17.2-21.1ZM433.59,255.93l1.86,1.12c.31,1.05-1.79,1.08-2.42,1.06l.56-2.18ZM299.15,344.93c-1.28-.23-.7-1.98.38-2.36,2.44-.86,1.69,2.74-.38,2.36ZM333.85,345.34c-.59-.33-.68-.72-.64-1.38l1.06-.08.1,1.42-.53.04ZM355.7,321.57c-2.26,3.72-4.19,6.56-7.41,9.51-.36.33-3.92,2.73-4.75,3.3-3.12,2.13-8.72,6.12-12.32,4.36-.07.62-.3,1.42-.86,1.75-.37.21-5.23,1.8-6,1.99-5.32,1.33-12.13,1.95-17.57,1.88-.82-.01-1.59.54-2.29.53-4.21-.07-1.09-7.6.99-9.28,4.19-3.38,8.25-8.08,13.26-10.07,6.23-2.48,10.41-3.07,16.88-3.1,3.32-.02,9.85-.59,13.24-1.38,1.37-.32,6.79-3.97,7.42-3.89,2.42,2.39.18,3.13-.59,4.41ZM496.24,341.54c.75-1.6,4.47-1.36,4.92-5.66.24-2.29-1.65-1.89-2.01-3.49-.33-1.49.42-4.13-.42-5.96,1.04-1.35,4.78,5.68,5.03,6.37,1.23,3.29,1.57,9.07,1.1,12.6-.33,2.46-1.79,4.23-1.36,6.66,2.98.44,2.86-2.95,5.56-2.81.96,1.96-.83,7.6-3,7.88-.33.04-5.85-.97-6.62-1.15-2.34-.55-4.57-1.56-6.89-2.15l3.69-12.28ZM488.63,342.53c.28.35.33.76.31,1.2-.03.77-6.55,11.18-7.36,11.61-2.57.55-5.21.74-7.78,1.36-5.41,1.31-10.82,4.37-15.61,7.15-3.34,1.94-6.8,5.58-11.34,3.17-3.48-1.84-3.19-4.51-4.8-6.39-.49-.57-1.64-.74-2.29-1.5-2.09-2.4-5.56-12.9-5.78-16.14-.06-.85.22-6.28.45-6.72.41-.78,1.61-.87,2.28-.35.76.59.93,2.26,2.21,2.41,1.21.14,1.59-.88,2.87-.8,1.25.08,2.29,1.06,3.36,1.35,10.7,2.89,24.59,4.96,35.83,4.2,1.52-.1,6.64-1.74,7.64-.55ZM454.79,375.47c-.44-.27-.49-1.73.78-1.48,1.27.25.1,2.02-.78,1.48ZM435.52,352.9l-.53.04c-.59-.33-.68-.72-.64-1.38l1.06-.08.1,1.42ZM465.86,337.63c.1-1.37,1.19-.83,2.09-.68.21,1.22-1.41,1.58-2.09.68ZM472.02,342.39l1.06-.08.05.71-1.06.08-.05-.71ZM438.95,314.91c9.19,1.19,17.22-1.16,25.96,2.85.31-1.03,2.33-1.81,2.82-1.18.65.83-.02,1.75-.85,2.19.33.19.66.36.99.56,4.57,2.84,10.64,7.49,14.8,10.9,1.22,1,6.59,5.16,2.56,5.39-1.67.1-3.1.2-4.79.35-3.99.34-7.77.1-11.5-.17-3.53-.26-12.38-1.11-15.3-2.58-.99-.5-1.38-1.66-2.02-1.82-2.89-.72-5.87,0-9-2.56-.74-.6-.82-1.6-1.26-1.92-.37-.27-1.21-.12-1.87-.68-1.95-1.67-.33-1.18-3.5-2.7-.99-.48-5.5-7.72-5.89-9.27-.17-.67-.27-1.34-.26-2.03.65-.76,7.64,2.47,9.13,2.67ZM426.23,377.18l1.83.59c.54,1.6-2.33-.04-1.83-.59ZM366.58,308.97c1.1,1.39-1.54,3.05-2.44,2.25-1.59-1.41,1.78-3.09,2.44-2.25ZM366.81,329.35c.21,1.22-1.41,1.58-2.09.68.1-1.37,1.19-.83,2.09-.68ZM362.3,345.19c.26-1.5,1.24-2.92,1.62-4.43.37-1.46.18-5.05,1.15-5.74,1.57-1.12,5.83,2.48,8.27,1.1,1.07,4.01-6.98,1.88-6.94,3.63,1.56,3.84,7.42,1.72,9.4,3.12,1.76,1.24,2.1,5.1,2.41,7.09.38,2.44,1.42.77,1.86-.63,1.07-3.44,1.79-12.89.52-16.15-1.12-2.89-3.9-5.51-4.88-7.34-.41-.78-.21-1.88-.49-2.28-.59-.82-4.09-1.58-5.84-5.44-2.57-5.69,2.3-5.76,1.33-11.15l-4.75.83c0-1.85-.71-4.06.04-5.81-.05-.19.02-.35.22-.43.12-.2.26-.39.43-.57.57-.6,1.81-.9,1.99-1.2.4-.65-.1-2.94.98-3.86.69-.59,1.75-.48,2.6-.89.41-.2.68-.95,1.24-1.17,4.12-1.57,7.02,1.43,10.84,1.51l-.31-7.22c2.27-1.8,12.54-2.97,14.18-1.3l1.14,8.25,1.36.27c4.03-6.52,12.22-5.95,16.63-.42l.03-.44.48.22-.25.56c.24.32.47.65.69,1,.81,1.33.47,2.2.89,3.1.7,1.51,3.1,3.08,1.81,5.19-2.25,2.27-5.77-2.16-6.61-2.24-.43-.04-2.6,1.84-3.94,1.21-.31,2.11,1.43,2.15,2.13,2.96,5.88,6.75-1.96,7.82-5.59,12.21-.57.7-3.95,4.9-4.09,5.21-.44.94.37,2.77-.99,4.75-.16.24-.53.48-.86.71.11.05.22.09.34.16l-.44.94c-.1-.01-.18-.03-.26-.05.28.35.67.86.73,1.42.23,2.09-1.22,7.32-1.12,10.22.04,1.16.27,5.12,2.04,4.75l4.53-6.73c3.49.24,5.78,1.67,9.27-.04,1.42-.7,5.16-4,3.1-5.38-.87,1.67-6.33,1.54-6.04-.28.08-.53,5.77-2.79,6.9-3.92,1.67-1.67,1.82-6.61,3.63-6.74,3.61.76,1.47,4.44,1.69,5.34.17.69,1.4,1.23,1.59,2.86.2,1.64-.41,3.35-1.63,4.45l1.44-.14c1.65,1.84-.12,3.73-.45,5.48-.27,1.4.14,3.98-.93,5.03-.48.47-1.59.57-1.93,1.06-.4.58.8,1.71.28,2.88-.36.82-1.91,1.23-2.27,2.1-.34.81-.15,1.94-.57,3.09-.97,2.6-4.63,5.91-5.6,8.84-2.71,1.24-4.13-6.28-6.06-4.78-.35.27.26,7.37.05,8.79-.32,2.21-2.19,6.36-3.97,7.78-3.04,2.41-4.68,1.37-8.21,1.94-3.76-1.03-3.24-5.41-1.32-7.92,1.28-1.67,3.37-1.86,4.83-3,2.2-1.71,4.31-6.43.46-7.27-3.74-.82-6.58,6.19-10.87,5.9-.81-.05-8.23-4.99-7.99-6.63l-1.4.1c.2,1.85-1.07,2.6-2.62,3.12-.29.48,1.61,4.39,1.81,4.54.23.17,1.67.06,2.54.44.54.24,4.66,3.25,4.92,3.64.82,1.24,1.62,5.2.67,6.46-2.92,3.87-12.37-1.34-12.24-6.53.03-1.03,1.39-2.04,1.15-2.92-.25-.9-1.97-.87-2.15-3.28-.1-1.33,1.74-4.83-.45-4.48-1.17.19-2.31,2.49-3.46,2.9-.22.08-.41.21-.66.16-1.58-.42-1.15-2.15-1.77-3.14-.6-.97-1.62-1.71-2.3-3.05-1.32-2.58-4.44-9.84-4.01-12.3ZM420.86,321.32c-2.57,0-6.55,1.43-8.81,1.41-.73,0-1.26,0-1.73-.65.44-3.63,2.71-3.59,5.27-4.85,1.47-.72,2.45-2.47,4.76-1.83.68,1.89,2.11,4.08.5,5.92ZM403.36,465.16c-.75-.18-1.18-1.2-2.13-1.22-1.62-.04-6.84,4.83-9.54,2.54-1.6-1.36.4-4.29.38-5.96-.04-3.34-.21-4.17.31-7.8.31-2.14-.51-3.62,1.13-5.75.29-.37,4.94-3.89,5.26-3.98,3.1-.84,3.36.16,5.46.93.77.28,1.91.21,2.44.55.24.15,2.61,3.44,2.73,3.85.34,1.14-.05,3.31.11,3.52.24.33,1.18.39,1.51.84.46.64.3,1.67.66,2.35.81,1.54,5.11,10.31,3.95,11.24-1.42-.12-3.55.02-4.85-.34-1.07-.29-1.74-1.48-2.74-1.51-1.29-.03-2.75,1.18-4.66.73ZM401.92,476.24c-2.47.96-6.22-3.29-3.86-4.28,2.01-.84,3.54,2.2,5.16-.91,2.83.39.31,4.57-1.3,5.19ZM393.32,395.22c1.08.02,1.85.86,2.46.82,1.41-.1,6.89-4.43,8.57-1.58.58.98-.18,7.18-1.93,7.74-.56.08-1.06-.1-1.5-.44-.31-.23-.62-1.18-.95-1.2-1.87.89-1.84,2.92-2.42,4.63-.22.63-.87,1.04-1.09,1.74-.43,1.33.49,3.94-1.93,4.6-2.4-1.44.33-4.44.23-5.07-.04-.27-1.18-1.03-1.52-1.8-.45-.99.02-1.97-.37-3.11-.52-1.53-2.12-4.13-3.09-5.54,1.2-.14,2.31-.82,3.56-.8ZM389.07,388.25c-.64-.23-4.71-2.39-4.77-2.66-.03-.15.26-.98.4-1.13.31-.32,6.49-2.05,7.17-2.06,1.68-.01,3.25,1.79,4.61,1.97,1.88.24,4.99-2.11,5.93.36-3.75,3.76-8.12,5.41-13.34,3.52ZM410.63,431.36l-2.01-.52c.43-1.01,1.86-2.19,2.78-1.09l-.77,1.61ZM410.27,418.41c-.51,1.58-4.81,12.4-5.4,12.82-1.45,1-2.76-.24-4.14-.39-1.15-.13-2.43.46-3.59,0-.44-.17-2.96-3.68-3.11-4.22-.3-1.08.04-3.33.46-4.35.51-1.24,1.37-1.75,2.27-2.16-.06-.32-.03-.72.13-.78.3-.11.51.15.59.47.52-.23,1.03-.47,1.45-.86,5.08-4.67,12.65-18.98,12.76-25.79.03-1.69-1.4-3.53-.09-4.99.42-.47,1.21-.45,1.48-.71.84-.84.2-3.81.46-5.22.4-2.16,2.55-4.84,4.65-5.62.08.86.19,1.72.14,2.58-.66,11.88-4.35,27.88-8.05,39.22ZM409.8,393.28c.17-.38,1.98-.66,1.76.41-.24,1.15-2.19.54-1.76-.41ZM399.76,535.95l-.05-.71c1.83-.28,1.86,1.3.05.71ZM415.18,569.68l-.53.04-.1-1.42,1.06-.08c.13.65.1,1.04-.43,1.46ZM416.42,565.36c-.24.31-5.68,4.92-6.03,5.11-1.71.92-6.5,1.46-7.78-.06-1.73-2.26.71-4.65.88-6.79.66-8.2.52-20.67-1.79-28.5-.63-2.12-2.59-4.03-3.37-5.96-.44-1.08-.25-2.29-.68-3.36-.59-1.47-2.69-2.39-3.02-4.86-1.01-7.64.91-11.66-2.67-19.71-2.12-4.75-4.94-7.89-7.77-11.78-4.8-6.58-8.9-15.16-10.3-23.31-.07-.43.07-1.53.53-1.68,1.9-.38,3.49.91,5.34,1.05.65.05,1.46.19,1.1-.76-.82-2.18-4.95-4.57-6.71-6.25-4.28-4.09-9.08-10.17-11.86-15.86-.72-1.47-1.82-5.9-2.77-7.06-.44-.54-2.63-.41-3.4-2.45-.74-1.97,1.45-9.09.58-10.46-.07.2-.19.38-.43.56l-.53.04-.03-.46-2.67.92-1.2-.7c-.44-1.6,1.25-3.37,1.45-4.49.21-1.17-.2-2.39-.03-3.61.21-1.53,1-3.09.77-4.27l-1.81,1.6c-1.55.13-1.4-2-1.38-2.99.07-3.69,3.05-9.27,4.07-13.08,2.32-8.64,4.16-13.34,8-21.33.56-1.16.18-2.98,1.68-3.94,2.2.21.93,2.39,1.07,3.53.7,5.93,3.27,12.39,4.07,18.04.13.94-.44,1.88-.25,2.83.27,1.33,3.28,2.48.87,4.77,3.71,1.42,3.27,6.01,4.72,9.05,3.52,7.41,9.46,16.13,13.89,22.86.83,1.26,3.61,4.44,3.74,5.5.3,2.52-2.95,2.94-3.9,4.07-.16.18-2.23,3.19-2.31,3.39-.35.92-.11,1.95-.28,2.9-.27,1.51-.96,2.87-.69,4.79l-2.6.89c2.12,2.2,2.51,3.41,2.41,6.56-.11,3.19-1.19,7.8-1.71,11.07-.17,1.1-1.12,3.61-.9,4.45.07.24,3.23,3.44,3.54,3.64.25.16,4.84,2.33,5.12,2.41.93.27,2.95-.52,4.38-.42,1.48.1,3.85,1.06,5.57,1.07.3.4.02,4.99-.1,5.85-.17,1.17-1.31,2.3-1.09,3.55.15.81,1.59,1.73,2,3.47,1.01,4.28,1.28,6.98,2.96,11.07,1.48,3.62,2.83,9.38,2.92,13.29.03,1.36-.98,1.96-1.16,3.07-.33,2.07-.11,4.41-.6,6.66-.34,1.56-1.51,2.65-1.35,4.27l.63.89c5.03.6,2.99,3.34,3.51,6.15.92,4.97,4.93,13.39,6.77,18.68.78,2.25,3.02,2.9.6,6.1ZM417.52,557.72l-.92-.47,1.41-.28-.49.75ZM424.42,569.56c-1.65-.23-.77-6.39,1.72-5.9.33,1.13.05,6.14-1.72,5.9ZM429.67,557.96c-.33,1.04-2.28,5.51-3.59,4.74-.09-.05-.43-1.44-.76-1.97-2.56-4.12-4.04-6.49-5.49-11.3-.27-.89.03-2.13-.2-2.79-.16-.44-1.19-.19-1.76-.64-1.19-.94-.29-2.31-.58-3.44-.75-2.92-2.43-6.3-2.28-9.42.05-1.06.9-2.11.95-3.17.07-1.4-.74-2.46-.77-3.72-.19-9.1.15-15.26-1.31-24.44-.72-4.56-1.01-6.45-.22-11.43.54-3.38,2.82-4.29,6.12-5.03,6.4-1.43,13.47,2.92,15.15,9.24.52,1.97-.69,2.43-.64,3.3.05.89,1.49,1.17,1.7,2.74.43,3.19-1.51,8.53-1.59,11.67-.05,2.11.95,4.18.9,5.67-.03.88-.74,1.58-.72,2.47.03,1.17,1.11,3.01,1.07,4.22-.09,2.91.11,2.01.4,4.33.37,2.95-1.72,6.47-1.98,9.06-.1,1.06.41,1.81.32,2.88-.41,4.78-3.25,12.32-4.72,17.03ZM423.64,476.48c.1-1.37,1.19-.83,2.09-.68.21,1.22-1.41,1.58-2.09.68ZM431.4,555.68l.44-.97c1.68.61,1.13,1.83-.44.97ZM436.28,593.86l-1.32-.79,1.77-.31.07,1.06-.52.03ZM467.4,510.29c-.24,2.2-.19,3.48-1.94,5.08,2.57,2.28.98,3.04,1.07,5.13.14,3.13-.15,5.67-.09,8.24.06,2.18,1.33,2.66-.59,5.31-2.31,3.18-5.39,1.97-8.62,2.75-2.63-1.59-.71-3.07-.42-4.72.68-3.82,1.08-6.15,2.63-9.83,1.39-3.32,4.83-8.59,5.03-12.26.06-1.19-.32-4.32-.36-6.13-.09-4.38-1.64-8.14,2.87-10.98l1.12.57c-.81,5.45-.11,11.45-.69,16.84ZM473.23,539.53l-1.65.59.08-1.94,1.65-.59-.08,1.94ZM476.55,535.66c-3.73,3.91-2.42-6.94-2.51-8.48-.32-5.77-1.42-10.13-.13-16.21.79-3.73.35-6.85,1.22-10.61.3-1.31,1.35-2.29,1.43-2.82.12-.71-.59-1.67-.44-3.01.38-3.5,2.88-6.49,3.51-9.11.37-1.58-.07-4.62.65-5.49.47-.57,6.73-3.41,7.6-3.56,5.82-1.03,7.78,5.04,7.61,9.74-.03.91-.53,4.86-.72,5.65-.23.96-1.37,1.69-1.47,2.34-.11.74.62,1.45.5,2.18-.02.11-.22.86-.45,1.71l.98-.07.1,1.42-.53.04c-.49-.28-.63-.61-.64-1.1-.26.97-.54,2-.64,2.39-3.24,12.45-7.09,21.99-14.12,32.64-.16.24-1.69,2.05-1.96,2.34ZM477.19,454.22l1.77-.31.07,1.06-.52.03-1.32-.79ZM485.15,523.63l1.83.59c.54,1.6-2.33-.04-1.83-.59ZM500.91,543.55l-.05-.71c1.83-.28,1.86,1.3.05.71ZM524.21,465.28c-1.59-1.41,1.78-3.09,2.44-2.25,1.1,1.39-1.54,3.05-2.44,2.25ZM527.05,456.58c-.5.58-1.59-.95-.61-1.02.24-.02.8.8.61,1.02ZM529.29,422.63l-.65-.29.44-.97.65.29-.44.97ZM530.6,413.65c-.04.25-.16.44-.31.57-.68,4.17-1.8,8.26-3.31,12.12-1.07,2.73-.98.92-1.45,4.58-.32,2.47-3.18,7.46-4.1,9.96-1.36,3.69-1.22,15.31-.83,19.85.09,1.04,2.51,6.8.77,6.94l-2.02-1.19c-2.43,2.07.01,5.56-.08,8.34-.04,1.27-.89,2.34-.74,3.38.13.84.99,1.41,1.02,2.28.1,3.08-6.46,12.91-8.25,16.16-1.8,3.26-3.2,6.5-4.71,9.83-.61,1.34-2.53,2.28-2.77,3.02-.31.98.01,2.06-.22,2.92-1.33,5.03-4.94,10.6-5.71,16.14-.34,2.48.08,5.51-.23,7.87-.07.52-1.31,5.19-1.46,5.46-.51.91-6.44,3.65-7.61,3.74-2.9.23-3.54-2.04-4.03-2.12-.63-.1-1.32,1.67-3.03.96-3.35-1.4.57-3.33,1.02-3.84,1.62-1.82,2.94-6.25,4.15-7.4.97-.91,3.48-1.13,4-2.04.76-1.33-.56-2.81-.17-4.49.28-1.2,1.69-2.03,2.09-3.14.93-2.63,1.72-6.61,2.82-9.22.35-.83,1.84-1.16,1.95-1.87.08-.55-.64-1.51-.41-3.06.35-2.29,2.09-4.88,2.82-7,1.47-4.25,2.56-6.86,4.31-10.74,1.71-3.81-.19-14.69.08-19.09.43-6.86,3.38-9.52,6.31-14.72,1.14-2.02,2.39-6.14,3.81-7.92.62-.78,1.94-1.04,2.03-1.18.15-.25-.39-1.46-.29-2.24.36-2.87,2.68-7.66,3.34-11.02,1.04-5.24.39-9.05.3-14.09-.02-1.11.75-2.2.7-3.47-.13-3.27-2.93-7.36-.81-10.51-3.08-2.47-2.72,4.12-3.15,5.79-4.06,15.74-12.23,33.72-29.55,38.61-1.26.36-3.2.69-3.01-1.22l2.75-13.85c-.11-7.31-1.18-11.72-3.18-18.6-.45-1.53-.56-7.24-3.19-5.67-.32,5.35.47,11.32,0,16.58-.42,4.65-2.46,12.5-3.67,17.01-.46,1.72-2.36,2.98-2.7,3.94-.59,1.68.21,3.08-1.39,5.08-.77.96-1.88,1.21-2.11,1.54-.31.45-.24,1.91-.67,2.79-.86,1.78-3.39,4.49-4.47,6.45-3.16,5.78-5.7,13.47-7.06,19.9-.43,2.05-1.64,6.32-1.84,7.84-.25,1.88.95,6.05.89,8.37-.03,1.22-.76,2.57-.67,3.42.09.95,1.14,1.53,1.05,2.69-.09,1.11-1.43,2-1.47,2.6-.03.49.46,1.23.45,1.9-.03,3.5-5.1,8.16-5.18,8.67-.36,2.45,0,3.4-1.05,6.16-1.3,3.44-.53,5.66-1.4,9.55-.75,3.39-.44,2.12-.36,5.48.04,1.81-1.39,4.72-1.37,4.98.22,2.96,2.72,7.85.84,11.55.03,1.83,1.15,6.5.82,7.96-.91,4.08-12.4,7.69-15.57,5.78-3.19-1.92.72-6.83,1.57-8.89,3.62-8.7,5.95-19.8,7.26-29.15.26-1.89.18-8.87,1.36-9.58.75-.45,1.87-.33,2.7-.81.43-.25,3.96-2.75,4.12-2.94.41-.5,1.11-3.93.77-4.27-1.61.5-3.02,1.09-4.75.56-1.31-.4-4.02-4.03-4.42-5.27-.85-2.61.45-7.27.76-9.95.15-1.32,1.07-5.89,1.06-6.21-.02-.85-.94-1.85-1.1-2.86-.43-2.66-.28-5.42-.64-8.09-.27-2-1.37-4.74-1.5-6.64-.09-1.34.86-2.47.76-2.86-.13-.5-2.47-4.17-3.09-6.31-.74-2.62-2.05-6.59-3.26-9.2-.54-1.17-5.7-8.95-6.51-9.6-.69-.55-1.02-.8-1.97-.57-.38,2.41,1.05,4.29,1.43,6.38.64,3.55.64,5.34,1.52,9.15.29,1.25,2.16,9.71,1.82,10.1-6.32.47-2.89-2.47-3.26-4.21-.16-.74-1.16-1.6-1.46-2.53-2.77-8.84-6.77-19.86-12.06-27.58-1.77-2.58-3.78-2.57-3.5-6.26.06-.8,2.15-5.38,2.65-6.23.78-1.31,2.44-1.87,3.09-3.16,1.23-2.47.42-4.71,2.8-7.89.43-.57,2.01-1.47,2.01-1.8,0-.28-.97-.92-.95-1.79.01-.78,1.12-1.88,1.39-2.82,3.31-11.17,6.33-23.96,7.21-35.5.35-4.52-.23-9.65.55-14.28.1-.61.33-1.14.72-1.63,1.67-1.21,2.06,2.34,2.43,2.94,5.91,9.56,11.56,17.22,21.46,23.18.29.17.47.74,1.07,1.06,1.64.88,12.44,4.52,13.4,3.45.21-2.27-2.13-2.14-3.37-3.11-1.64-1.28-6.27-5.01-7.44-6.44-4.5-5.51,5.15-3.34,7.65-3.7,1.91-.27,5.41-2.31,7.14-2.81,1.28-.37,2.65-.24,3.96-.4l-.46-2.43c-2.99.23-5.88-.73-8.68-1.01-.89-.09-4.03,1.35-4.21-1.12-.13-1.77,6.98-4.48,8.67-5.08,8.51-3,25.07-5.17,33.01-.08,1.86,1.2,1.94,1.54,4.31,2.79,3.83,2.02,3.63,2.29,6.41,5.04.8.79,2.11.99,2.77,1.99.54.82.51,2.06.81,2.43.19.23,1.5.42,2.14.9,2.56,1.89,1.78,3.61,2.81,5.57.37.71,2.05,1.61,2.57,2.73,3.95,8.42,4.86,17.96,3.56,27.14.12.11.19.28.15.54ZM440.48,515.58l-.58,1.3c-1.28-.58-.71-1.87.58-1.3Z"></path>
    <path d="M396.93,420.52c.52.23.65-.29.54-.72-.24.1-.48.21-.72.31.04.2.1.37.18.41Z"></path>
    <polygon points="378.67 317.46 378.18 318.41 379.45 319.05 379.14 317.7 378.67 317.46"></polygon>
    <polygon points="402.09 327.82 401.99 326.41 401.46 326.45 400.97 327.01 401.38 327.88 402.09 327.82"></polygon>
    <path d="M380.97,370.43l.58-1.3c-1.3-.58-1.86.72-.58,1.3Z"></path>
    <path d="M366.98,302.52c.19-.22-.37-1.04-.61-1.02-.07,0-.1.03-.15.05-.08.14-.16.28-.22.43.1.42.66.91.98.54Z"></path>
    <path d="M417.57,295.3c-.09-.11-.17-.23-.26-.34l-.07,1.07.33-.74Z"></path>
    <path d="M400.64,330.45c-.16-.2-.28-.35-.28-.42,0-.18.3-.4.65-.63-2.27-.99-2.85.59-.37,1.05Z"></path>
    <path d="M493.28,498.3c.03-.1.05-.19.08-.29h-.08c0,.11,0,.2,0,.29Z"></path>
    <path d="M372.92,408.26l-.44.97c1.57.86,2.12-.36.44-.97Z"></path>
    <polygon points="358.6 411.27 359.09 410.52 357.68 410.8 358.6 411.27"></polygon>
    <path d="M356.69,421.77l-1.06.08.07.96.87-.3s.08.1.12.16c.09-.25.08-.53,0-.9Z"></path>
  </g>
  <path d="M405.1,189.78c-.85-1.1-.56-2.35-1.12-3.14-1.19-1.68-9.58-2.66-10.13.25.63,2.35.91,14.13,2.32,15.03s4.33-2.71,4.96-3.84c.86-1.55,1.15-5.84,3.27-2.57-1.03,2.5.43,5.08.48,7.15.02.89-.59,1.72-.6,2.55,0,.95,1.55,3.68.37,4-1.26.35-5.23-8.33-9.06-5.13l1.38,15.59c.65,1.51,5.86.89,6.58.25.45-.4.54-1.46,1.04-1.8.63-.42,1.6-.28,2.33-.68,1.91-1.03,2.48-4.61,2.78-6.57.13-.84-.47-3.8,1.06-3.56,2.4,1.96,1.09,5.58,1.91,8.18.28.89,1.31,1.52,1.42,2s-1.22,2.68-1.63,2.93c-1.32.77-6.81.63-8.84.89-1.33.17-2.53,1.01-3.76,1.14-4.02.44-9.26-.25-13.45.59-2.95.59-2.74,2.7-6.21.02l-17.42,5.06-.86-1.1c.12-.68,3.53-1.3,3.12-3.57-.12-.64-.89-1.14-1.08-1.92-.34-1.36-.47-4.01-.98-5.11-.33-.7-1.33-.55-1.47-1.01-.25-.86.52-2.68.19-4.22-.71-3.32-2.06-5.09-2.61-8.94-.49-3.39-2.76-4.62-3.25-.66-.97,7.77-.58,15.69-1.39,23.45-.1.97-.87,5.22-1.67,5.28-.45-1.13-3.47-1.98-3.67-2.24-.26-.33-.15-1.19-.5-1.73-3.18-4.91-9.19-11.59-13.03-16.09-.49-.57-5.23-6.26-6.07-5.17-.21,1.03,1.1,3.68-.71,3.42-1.6-3.1-1.02-7.93-5.43-8.27,3.42-3.1,9.41-2.69,13.09-5.58.65.11,5.13,4.78,5.9,5.66,2.64,3.03,5.99,6.57,8.41,9.48.8.96.94,3.31,2.62,2.67,1.04-.39,1.06-7,1.2-8.38.16-1.55.13-2.67.24-3.92.28-3.37.7-6.79.97-10.17.41-.79,7.12-2.09,8.63-2.52,1.42-.4,2.7-1.58,4.61-1.17-.15.86-1.25,1.3-1.52,2.04-.59,1.57,1.65,10.53,2.97,11.08.83.34,2.37-.17,2.94.76.6.98-1.45.71-2.11,1.3-.5.45-.63,1.12-.59,1.77.04.54,1.28,4,1.58,4.96.77,2.46,1.81,5.1,2.64,7.85.56,1.82-.14,3.77,1.96,5s5.03,1.68,7.19.44c2.3-1.33.65-2.78.63-4.35-.02-1.31.4-2.5.28-3.86-.59-6.83-2.49-14.1-2.06-20.57.1-1.46-.07-3.93-.88-5.15-.61-.91-2.3-1.03-2-1.82.38-.71.89-.74,1.59-.87,6.61-1.25,13.96-.8,20.46-2.07,1.86-.36,1.79-1.33,4.74-.59s1.35,1.59,1.58,3.36c.11.83.58,1.58.66,2.36s.93,7.19-.5,6.29c-1.21-1.08-1.68-2.62-2.5-3.88-.21-.33-.89-.39-1.03-.58Z"></path>
  <path d="M208.76,455.42l-.13-2.8,2.97,2.05.13,7.03c.13,1.62,1.59,3.84,1.72,5.23s-1.09,3.49-.95,4.34c.16.98,1.47,1.57,1.88,2.47.78,1.7,2.52,7.6,2.15,9.24-.11.51-3.38,4.32-3.92,4.68-2.09,1.37-6.21,2.31-8.78,4.08-3.88,2.67-3.18,7.47,1.37,5.67,1.41-.56,2.91-1.09,4.31-1.65s3.95-2.9,4.28-2.98c1.02-.26,3.26,1.14,3.85-1.22.26-1.02-.7-2.36.9-2.13,0,.65.09,1.28.41,1.86,1.06,1.96,3.01,7.4,3.72,9.73.48,1.55.26,3.7.97,5.36-1.3.26-1.78-1.38-2.86-1.61-3.46-.76-4.64,1.62-6.6,2.23-1.01.31-1.91-.37-2.68-.13-.88.27-1.47,2.11-2.39,2.38-1.56.46-5.2.26-7.07.69-2.28.52-5.38,1.93-7.75,2.72-3.15,1.04-6.1.55-6.63,5.03-1.59-1.57-1.78-4.17-2.61-6.32-.33-.86-1.39-1.59-1.56-2.37s.32-1.54.22-2.3c-.32-2.27-3.16-5.33-3.35-6.55-.17-1.04.38-1.99.27-2.87-.22-1.78-1.5-5.88-1.27-7.43.13-.83,1.1-1.44,1.41-2.32.2-.58-.2-1.55.03-1.98.15-.29,1.14-.31,1.46-.63.77-.79.52-1.49,2-2,2.35-.81,9.96-1,11.49,1,1.06,1.38.89,4.64,3.45,4.05-.67-8.77,4.59-9.99,10.82-13.76.96-3.8,3.78-7.41-2.45-6.62-2.11.27-4.5,2.55-5.28,2.24-.08-.03-.15-.76-.73-.96-2.48-.82-5.43,1.21-7.76,1.65-3.16.59-14.64.88-16.65,2.66-1.78,1.58,1,3.41.56,3.85-3.78.88-2.98-4.98-3.57-7.55-.32-1.4-1.42-2.86-1.6-3.9-.29-1.67.69-4.49,0-6.45,1.28-.27,1.43,1.18,2.34,1.69,2.26,1.27,2.61-1.09,4.19-1.19.81-.05,1.56.71,2.48.73,1.96.04,11.18-1.45,13.28-1.94,1.75-.41,2.87-2.68,4.67-2.7,1.15-.01,1.55,1.59,2.84,1.16,1.75-.58,1.56-3.9,2.22-3.95,1.98,1.36.95,4.51,4.2,2.49ZM199.87,498.85c2.79-3.22-2.97-6.42-6.35-6.15-.78.06-7.63,2.39-8.2,2.78-.34.23-2.15,2.97-2.29,3.4-1.67,5.1,4.71,4.06,7.69,3.05,1.3-.44,2.42-1.6,3.93-1.99,1.41-.36,4.36-.1,5.22-1.09Z"></path>
  <path d="M621.95,452.18c.59.3.48,2.21,4.16,3.22,5.85,1.61,11.66,2.35,17.69,3.4,3.6.62,13.33,4.98,12.35-1.45l2.33-.22c-.61,4.07-1.47,8.12-2.23,12.18-1.09,5.81-1.27,8.65-3.79,14.21-1.21,2.65-.25,2.92-3.07,4.97-5.3,3.84-7.15,1.38-12.66-.18l-2.55-8.22c-1.6-.91-3.06,4.23-4.9,4.95-3.71,1.47-9.66-.44-11.71.19-1.45.44-1.77,3.07-2.12,3.34-.73.57-3.22-.09-2.03,2.82.64,1.55,21.26,7.75,24.1,9.48,1.76-.11,6.24,1.99,7.27,2.01,1.27.03,2.46-1.57,3.97-1.26.47,2.22-1.69,3.73-2.57,5.62-1.6,3.42-1.85,7.29-3.73,10.23-1.37,0-.6-2.24-1.42-3.41-.66-.95-10.31-3.88-12.3-4.58-3.28-1.17-12.86-5.4-15.32-5.65-1.13-.12-6.62,1.18-6.85.15.8-1.9,1.11-4.25,1.76-6.09,1.66-4.71,3.39-9.61,5-14.51.91-2.75.32-4.28,2.27-7.01,2.28-3.19,3.94-3.12,7.71-3.2,3.23-.07,11,2.43,11.92-2.31.48-2.47-3.58-1.94-4.81-2.29-4.51-1.3-8.86-4.5-13-.26-.64-2.37-.89-3.06.63-5.09l2.06-10.96,1.82-.07ZM638.42,471.51c-.31-.14-.6-2.32-1.81-.77-.11,4.97,4.62,8.33,9.22,8.34l2.31-1.96c3.92,4.95,8.37-3.37,3.05-5.08-1.27-.41-7.69-1.77-8.84-1.75-1.59.03-3.3,1.5-3.93,1.21Z"></path>
  <path d="M279.89,269.88l.03,1.33c-4.24,4.14-8.81,8.07-12.18,12.99-1.94-1.06.07-4.14-.83-5.24-.37-.45-1.95-.51-2.74-1-1.87-1.16-3.29-2.84-5.9-3.07-3.2-.29-3.3,3.03-4.65,3.86-1.72,1.05-3.63-.1-3.97,3.3-.21,2.05,3.73,8.78,5.72,9.23,1.54.35,2.45-.37,3.73-.64,1.63-.35.09,1.91-.33,2.41-1.22,1.45-4.55,3.96-5.48,5.35s-.89,3.87-3.26,5.04l-32.71,5.17c-.77.86,2.32,3.15,2.93,3.62,4.25,3.28,9.15,5.23,13.67,8.06,2.36.34,4.79-.96,4.21-3.59l1.43-.1c1.07,4.46-.49,3.58-2.49,5.69-.3.31-3.18,5.76-3.57,3.62.56-3.93-1.51-3.17-3.06-4.47-1.93-1.62-3.33-3.79-5.88-5.39-2.41-1.52-4.92-1.83-6.9-2.92-1.46-.8-1.68-2.25-2.64-3.17-1.93-1.82-4.64-1.85-5.78-2.65-1-.7-.71-2.74-3.09-2.7-1.09.02-1.4.67-2.05.89-2.35.82-.72-2.54,0-3.6.1-.15,2.3-2.7,2.44-2.83.55-.5,2.4-1.64,3.07-1.83,3.69-1.03,10.03-1.38,14.15-2.14,2.07-.38,5.09-.54,6.67-.97.97-.26,1.53-1.29,2.31-1.4,1.02-.13,2.42.82,3.62,0,.3-2.01-1.62-3.51-3.23-4.29-.79-.38-1.92-.18-2.58-.52-.53-.28-.73-1.43-1.46-2.07-.45-.39-5.13-3.17-5.64-3.33-2.85-.86-3.61.67-6.01,1.5l-.2-2.07c.77-.57,1.41-.62,2.14-1.41,1.32-1.44,1.83-5.22,3.74-4.39.1,6.43,7.69,8.48,12.25,11.52s8.81,6.79,13.96,9.4c.81.41,1.1,2.19,3.26,1.15.6-1.87.5-4.26-.22-6.09-.54-1.37-1.64-1.65-2.01-2.35-.64-1.2-1.04-3.86-1.87-5.63-.66-1.42-3.73-5.48-4.01-6.31-.35-1.03.44-2.04.1-3.14-.24-.78-2.09-2.51-2.7-3.67-1.15-2.18-1.77-5.18-2.58-7.4-.75-2.04-2.71-2.02-1.51-4.86.85-2,2.23-3.88,4.61-3.42,3.46.67,9.09,4.75,12.83,5.92,1.57.49,3.23.25,4.37.65.63.23,2.62,2.09,3.92,2.73,5.13,2.55,10.76,4.31,16.38,5.18ZM243.77,269.13c-.22,1.42,1.14,2.13,1.53,3.15.62,1.61,1.52,8.38,4.21,7.44.78-1.52,5.02-4.67,4.6-6.24-.45-1.68-8.35-4.49-10.35-4.36Z"></path>
  <path d="M649.77,358.16c-1.81.7-1.51-1.32-2.85-1.63-1.02-.24-3.04.09-4.16.28-1.4.23-8.28,2.18-9.24,2.79s-.85,2.6-1.47,2.71c-1.37-.44-2.37-1.26-3.91-1.14-2.43.19-9.62,2.51-12.06,3.54-6.65,2.8,3.44,10.9,7.37,11.23,2.16.18,4.31-.43,6.37-.9,1.7,3.55-.55,2.53-2.74,3.2-2.46.75-4.9,1.66-7.37,2.38l.58,2.1c1.68.18,3.44,1.3,4.83,1.68,7.06,1.95,14.68,2.83,21.57,5.14,3.75,1.26,15.1,1.95,10.83,8.24-.29.43-3.35,3.33-3.72,3.51-2.08,1.04-5.09,1.7-7.39,3.04-1.44.84-2.46,2.25-4.21,3.09-2.48,1.18-4.22,1.26-6.82,3.08-3.32,2.31-5.2,2.8-8.52,4.75-1.72,1.01-3.21,2.22-4.61,3.64-.48-.3-.67-.58-.81-1.13-.65-2.63-.28-6.66-.7-9.57-.37-2.52-1.19-4.91-1.97-7.31l1.84-.06c.63,3.18,4,2.35,6.06.94,1.61-1.1,2.99-2.01,4.93-3.05.53-.28,1.44-.18,1.79-.45,1.22-.97-.62-8.65-1.68-10.04-1.85-2.41-2.59-1.2-4.97-1.51-2.04-.26-3.38-1.51-5.82.11-1.81,1.2-.88,3.64-2.89,4-.25-.24-.26-5.71-.54-6.91-1.44-6.11-4.47-16.25-6.87-22.16-.45-1.1-1.93-2.75-2.05-3.26-.3-1.25.55-4.14-.57-5.9,1.09-.3,1.44.98,2.35,1.17,3.56.77,4.8-1,7.32-2.02,1.67-.67,3.98-.42,5.73-.89,4.6-1.25,10.4-3.36,14.79-5.17,1.6-.66,4.08-.35,5.25-2.64.62-1.22-.3-2.75.96-2.75l5.41,17.88ZM635.35,396.14c1.61,1.42,5.3-1.76,6.91-2.56.92-.46,4.46-.6,3.66-2.66-.46-1.17-3.37-.26-4.51-.5-1.53-.32-3.85-2.7-6.38-1.76-2.01.75-.47,6.78.32,7.48Z"></path>
  <path d="M413.16,638.08c-.23.39-2.87,3.45-3.24,3.69-1.42.92-3.64,1.09-4.83,2.67.28,3.07,3.4,4.06,5.1,6.5.92,1.32,4.14,7.76,4.3,9.09.04.31-.59,5.23-.7,5.48-.14.3-4.27,4.02-4.9,4.51-3.48,2.69-5.22,2.82-9.61,2.91-6.08.13-9.93-.52-14.94-3.99-3.5-2.42-4.14-3.94-4.03-8.32.17-6.76,6.54-7.85,10.13-11.88-3.67-6.21-9.56-12.27-3.75-19.38,2.4-2.94,5.32-4.32,9.03-4.76,1-.12,4.32-.34,5.31-.36.3,0,4.95,1.52,5.58,1.77,4.02,1.61,9.17,7.6,6.55,12.07ZM403.87,636.34c4.01-9.41-9.06-14.1-7.91-4.79.11.85,1.99,5.72,2.51,6.48.76,1.11,3.26,3.38,4.65,2.82l.73-1.23c-1.63-2.6-.51-2.03.02-3.29ZM396.53,654.03c-.45-.48-3.24-2.42-3.85-2.06-1.85,1.11-2.55,6.42-2.57,8.48,0,.81.5,5.53.83,6.01.62.89,1.79.95,2.19,1.63,1.12,1.86.11,3.73,4.13,3.56,6.18-.26,5.42-8.11,3.28-12.15-.29-.55-3.58-5-4.02-5.47Z"></path>
  <path d="M619.55,293.98c2.33,2.08,6.27,10.28,5.53,13.04-.07.25-2.38,4.29-2.59,4.52-1.13,1.22-3.96,1.74-5.46,2.73-1.36-.9-2.93-.42-4.25-.76-1.21-.31-2.74-2.43-3.95-1.69-1.11.67-.86,3.45-1.22,4.8-.5,1.83-2.71,5.36-3.82,6.78-.37.47-1.54.56-2.17,1.05-2.15,1.64-1.89,3.09-1.55,5.61-2.88.12-5.41-2.63-6.72-4.93s-3.05-6.47-.99-8.67c1.85-1.98,6.66-4.6,8.15-6.98.57-.91,2.17-5.34,1.43-6.19-2.59-2.97-5.61,2.69-6.33,2.98-.87.35-1.91.03-3,.55-.25.12-3.99,3.38-4.11,3.62-.65,1.28-.24,2.51-.16,3.89l-.93.31c-1.37-1.53-1.84-4.18-3.08-5.52-.71-.77-2.17-1.14-2.52-1.75-.52-.91-.27-2.24-.69-3.35-.51-1.35-2.74-2.72-2.53-4.6,3.09.32,4.29,1.08,5.38-2.32,2.63,1.56,6.21-.05,5.5-3.29l.45-.47c3.52,1.93,4.5-2.12,5.44-2.75.53-.35,2.08-.14,3.21-.6,2.31-.94,3.84-3.32,5.28-4.41,2.03-1.53,7.4-2.14,5.51-6.22.65-.08.92-.23,1.48.21,1.48,1.15,4.11,7.12,6.18,9.36.48.52,1.53.7,1.67.91.12.18.85,3.64.89,4.16-.87-.77-1.49-1.74-2.81-1.71-1.91.03-13.14,6.97-13.77,8.72-.56,1.53,1.79,3.91,3.22,4.07,2.09.24,4.48-1.84,6.85-1.69,3.68-1.82,6.85-4.98,6.51-9.4Z"></path>
  <path d="M343.14,232.97c.3,1.31-.11.74-.64,1-2.83,1.4-6.1,1.27-8.91,2.62-.45.21-5.35,3.46-5.58,3.7-.68.7-.45,2.11-1.29,2.47-1.51.65-5.78.4-7.76,1.59l.82-2.25c.08-2.24-3.63-2.64-5.07-3.47-1.87-1.08-9.17-6.72-10.77-6.15-2.39.86,2.09,4.81,2.64,5.7,1.23,2.03,2.46,7.53,4.85,8.4,1.08.39,4.64-.6,4.41,1.12-.15,1.08-2.25.52-3.2.79-1.82.52-11.78,7.1-12.64,6.39.9-2.24-.14-2.7-.65-4.18-2.41-6.97-7.95-14.51-11.49-20.96-1.06-1.92-2.62-6.66-4.65-7.12-.75-.17-2.92.66-2.9-.22,0-.35,4-2.66,4.73-3.08,1.69-.99,4.24-2.02,5.85-3.02,1.75-1.09,2.35-3.21,5.62-2.54.26,1.3-1.38,1.79-1.62,2.87-.65,2.93,2,4.35,2.98,6.2,1.13,2.13,1.72,5.22,3.67,7.18,3.43-.04,5.38-5.53,1-6.35,1.06-1.75,1.62.58,3-.51,1.48-1.17,1.22-3.52,2.88-4.49-1.11,3.74,1.24,3.27,3,4.58,4.11,3.04,7.18,5.8,12.34,7.52.44.15,1.14-.25,1.45-.08.57.31,1.33,2.29,2.95,3.29,3,1.85,6.48,2.84,7.24-1.68-1.05-2.66-1.04-5.75-1.68-8.39-.49-2.01-1.4-4.99-2.04-6.99-.74-2.32-3.15-4.61-1.56-7.54l2.19,2-.63,2.39,5.12,16.43c1.91,1.81,3.7,2.72,6.36,2.76Z"></path>
  <path d="M445.96,623.8c.61,1.85-1.92,2.19-3.28,3.22-2.5,1.9-6.38,4.97-7.23,8.11-.53,1.95-1.07,3.82-1.6,5.79-1.8,6.62,2.05,2.86,4.81,1.91,2.18-.75,5.45-1.09,7.7-.54,3.78.92,8.28,7.42,9.25,11.09,1.61,6.11-2.52,13.59-7.94,16.5-.88.47-7.98,3.45-8.44,3.45-.32,0-5.56-.93-6.19-1.08-.84-.2-6.12-2.65-6.66-3.2-1.24-1.25-1.09-2.79-1.85-4.09-2.51-4.28-3.25-4.42-3.65-10.21-.3-4.42.89-9.23,1.8-13.5.1-.48,1.11-.75,1.57-1.43.68-1.03.75-2.85,1.1-3.32,1.84-2.51,6.44-5.26,8.94-7.3.9-.74,1.97-2.66,2.7-3.05,1.19-.64,2.66-.25,3.92-.65,1.73-.54,3.06-1.93,5.04-1.7ZM437.24,644.7c-1.97,2.83-4.52,3.78-4.12,7.68.4,3.85,1.52,8.82,2.71,12.48.68,2.07,1.18,6.46,4.59,5.91,2.97-.48,3.62-9.06,3.34-11.47-.36-3.13-1.26-5.73-1.6-9-.27-2.54-2.02-5.67-4.93-5.6Z"></path>
  <path d="M476.94,627.87c1.75-.47,8.17.04,10.06.59,1.06.3,6.97,3.02,7.67,3.57.6.47,3.28,5.12,3.71,6.09,2.2,5.02,1.57,8.47.28,13.45-.13.5.35,1.18.14,1.9-.09.32-3.31,5.25-3.56,5.46-.52.41-1.64.25-2.34.67-1.23.73-2.23,2.37-3.53,2.78-1.99.63-10.03,2.62-11.75,2.65-1.49.02-9.1-3.33-10.37-4.33-.95-.75-5.02-6.62-5.44-7.72-2.45-6.41,1.39-12.93,3.21-18.79,3.73-.78,8.79-5.46,11.94-6.3ZM480.22,659.41c.8.69.26,1.56,2.21,2.37,3.88,1.6,5.43-1.07,6.18-4.54,1.54-7.11-2.34-17.57-6.48-23.15-1.67-2.25-2.15-4.53-6.11-3.88-1.35.22-3.43,2.85-3.68,4.02-.44,2.01.8,3.52.75,5.09-.03.98-.83,1.75-.76,2.96.16,2.71,3.9,14.43,5.79,16.18.7.64,1.65.56,2.1.95Z"></path>
  <path d="M578.2,243.74c.35.32.75,1.83,1.55,2.62,1.89,1.87,2.05,1.4,4.14,4.03,3.11,3.91,6.52,6.68,6.34,12.25-.15,4.54-3.42,7.54-7.78,8.52-.68.15-5.73.93-6.03.88-.22-.03-3.92-1.39-4.1-1.5-1.4-.89-3.65-2.97-5.08-3.98-5.02-3.57-3.53-1.07-5.65,1.4-.87,1.01-2.69,1.41-3.92,2.89-3.65,4.4-.11,4.05.9,6.79.22.6.65,1.77-.5,1.62-1.19-1.35-2.41-2.77-3.89-3.81-2.44-1.7-3.75-1.47-5.72-4.28-.44-.63-.43-1.63-1.02-2.45-1.13-1.56-4.33-1.83-4.18-4.25,2.93.64,3.75,1.48,6-1.1,2.85-3.26-.31-4.16.28-5.13,5.29-.33,6.56-1.42,9.72-5.29.54-.66.55-1.67.93-2.11.58-.67,2.5-1,3.13-2.01.89-1.4-.31-2.54-.24-2.66.08-.14,2.27-.61,3.06-1.18.32-.23,3.46-3.88,3.55-4.14.54-1.46-1.15-2.23-1.01-3.76,3.29.22,4.95,4.57,6.9,5.76.82.5,2.16.48,2.6.89ZM567.49,264.97c3.67,3.06,12.09-5.14,13.98-8.11,2.64-4.16-.2-10.19-3.88-7.38-.95.72-.75,1.85-1.22,2.32-2.21,2.22-5.26,3.72-7.31,6.91-.77,1.21-2.87,5.19-1.57,6.27Z"></path>
  <path d="M190.74,327.37c.12-.09.42-2.14.93-2.79.16-.21,3.52-3.56,3.73-3.73,1.36-1.1,3.94-.71,3.32-3.4-.21-.9-1.21-1.14-1.13-2.11,2-.26,3.52,1.32,5.25,1.96,2.52.92,6.26.79,6.72,3.89-2.36.97-3.82-.79-5.63-1-.95-.11-4.66-.12-5.35.24-2.94,1.49-6.28,6.34-5.49,9.68.13.57,1.5,3.77,1.82,4.17,1.07,1.36,3.38.99,3.63,1.25.38.41-.19,2.69,1.58,3.63,1.16.61,2.82.19,3.78.69.58.3.69,1.48,1.45,2.08,2.64,2.1,6.19,1.61,8.93,2.12,1,.19,2.25,1.44,3.72,1.45,1.19,0,1.71-.83,2.71-1.05,1.3-.28,2.79.09,4.02-.56.74-.4,3.32-5.57,3.37-6.54.03-.49-1.46-5.94-1.66-6.32-.12-.23-3.34-2.92-3.86-3.33-.17-.13-3.64-1.2-2.09-2.26.81-.56,3.7.07,4.52.49s1.04,1.28,1.72,1.64c.3.16,6.33,2.26,4.47,3.1-3.24-.2-2.54,4.38-2.11,6.63.18.97,1.25,1.76,1.07,2.73-.09.48-1.61,2.37-2.03,3.22-1.06,2.12-.73,1.84-2.19,3.93-1.88,2.68-4.69,4.85-3.73,8.21-2.89-2.42-3.03-.42-4.74.11-.33.1-4.39.6-5.06.65-7.04.51-12.89-3.27-18.77-6.35-1.55-1-1.13-2.84-1.74-4.21-1.31-2.96-3.24-5.5-3.21-9.03.01-1.73,2.29-6.78-.19-7.8-2.1-.86-7.88,1.92-8.7,4.25-1.12-.55-3.67,1.52-4.17.79-1.96-2.9,6.36-7.68,6.97-10.61.19-.91-.38-1.65-.25-2.42.26-1.6,1.39-4.17,1.28-5.67-.09-1.23-1.28-1.71-1.17-2.97,3.96-.21,2.9,5.09,3.47,7.65.16.73,1.2,3.82,1.5,4.5.41.95,2.07,4.08,3.34,3.09Z"></path>
  <path d="M209.98,430.8c.82.43,2.69-.95,2.4.84-3.89.7-1.89,4.33-1.92,6.6-.02,1.26-1.16,2.56-1.42,3.74-.45,2.04-.35,4.75.27,6.73l-6.37.94-8.07-1.09,8.28-3.15c4.43-2.36,5.95-4,4.65-9.22-.99-3.95-2.91-5.63-7.13-5.05-1.12,1.64-3.4,2.44-4.58,3.69-1.55,1.64-2.26,4.42-3.21,6.08-.39.68-6.24,7.03-7,7.52-.35.23-3.49,1.75-3.69,1.78-.37.06-7-1.16-7.32-1.36-.19-.12-2.83-3.05-2.97-3.31-2.41-4.46-2.51-11.37-1.43-16.24.2-.89,1.13-1.54,1.13-2.65-.01-1.3-1.35-2.13-1.22-3.48,3.86.46,8.69-1.41,12.08.79-1.65,3.13-7.29,2.19-8.51,4.75-.31.64-.13,1.53-.57,2.2-.93,1.43-1.97.25-1.74,3.47.32,4.52,2.43,6.06,6.87,4.99,1.63-.39,3.12-2.32,4.05-3.68,4.23-6.16,7.87-13.96,15.83-15.94l7.71,1.25c-.33,3.63,3.64,5.8,3.88,9.77Z"></path>
  <path d="M190.05,383.25l-1.84-1.73c-2.29.1-4.05,1.43-5.82,2.07-1.05.38-2.16.38-3.23.8-1.27.48-5.4,3.96-4.3,5.31.88,1.08,9.51,1.44,11.49,1.75,7.5,1.15,15.11,3.12,22.75,2.2l2.31-4.73c1.5-.16-.1,4.92-.17,5.67-.36,3.88-1.17,9.29-1.11,12.94.01.81.95,1.87.47,2.63l-2.15.62c.06-1.57-.75-3.74-2.01-4.68-2.14-1.6-14.96-2.29-18.37-2.61-.7-.07-1.38-.66-2.15-.68-1.44-.04-2.37,1.05-2.78,1.04s-.91-.94-1.62-1.1c-1.09-.25-4.54-.63-4.42.95.07.88,1.97,1.44.45,2.61-1.77-.65-1.2-4.73-3.22-4.58-2.63.18.58,5.1,1.43,6.15,2.35,2.89,6.06,3.52,8.82,5.87-1.74,2.41-3.24.65-5.25.37-1.85-.26-7.49-.13-8.26-.81-1.59-1.39-.13-4.67,0-6.3.62-7.99,1.92-15.73,2.67-23.7.08-.8.71-3.98,1.04-4.48,2.07-3.06,6.36.11,9.01.55,3.81.63,6.74-1.36,6.27,3.9Z"></path>
  <path d="M452.81,199.41c-.94.19-.78.16-1.12-.52-1.05-2.1-1.4-5.87-2.42-7.58-1.08-1.8-3.99-2-4.2-4.74l-2.75.2c-1.28,4.11-.84,8.46-1.17,12.66-.35,4.49-1.91,10.95-1.7,15.14.03.56,1.01,5.66,1.17,5.92.64,1.05,3.48,1.19,3.32,2.41-.19,1.51-3.84-.17-4.7-.27-.73-.08-1.41.54-2.15.44s-1.47-1.21-2.6-1.13c-1.05.08-2.03,1.41-2.79,1.45s-1.55-1.08-2.5-1.09c-.88,0-1.54.82-2.58.45-.26-.09-3.99-2.41-3.59-2.89,5.82,1.42,4.45-3.43,4.83-6.81.73-6.64,2.92-15.37,2.64-21.93-.08-1.81-1.18-3.71-.39-5.93-1.47.14-2.79-.1-4.06.75-.31.21-4.05,5.12-4.59,5.9-1.05,1.48-1.3,4.47-3.53,4.35.96-3.26-.24-10.43,1.23-13.05.31-.54.61-1.01,1.31-1.05,2.56.54,5.21.72,7.81.85,1.27.06,2.32-.6,3.25-.59,2.51.04,6.53,2,9.42,2.02,2.26.01,3.49-.03,5.75.07s4.67,0,6.99.2c.6.35.58,1.25.6,1.89.13,3.62-1.33,9.07-1.48,12.88Z"></path>
  <path d="M253.36,555.02c.66.57,1.84.79,2.59,1.41,1.67,1.38.75,3.22,1.58,5.18-5.34-2.86-10.66,4.45-14.38,7.53-1.6,1.32-3.24,1.92-5.04,3.73-2.39,2.4-3.96,2.51-6.7,4.51-8.34,6.1-.58,7.44,5.8,6.35,1.11-.19,6.52-2.21,6.9-1.89.51,2.33-1.79,2.36-3.09,3.38-1.14.89-6.54,5.76-7.13,5.93-.96.28-4.61-3.63-5.33-4.55-3.37-4.28-6.36-9.34-9.72-13.67-1.42-1.83-7.5-7.07-6.65-9.43.67-1.88,4.52-3.49,6.05-4.67.95-.74,3.92-4.89,5.15-3.37,1.07,1.33-1.23,2.64-1.76,3.6-.57,1.05-1.9,4.17-2.47,5.49-1.64,3.81-.59,8.4,4.2,5.42s9.64-8.03,14.05-11.63c1.31-1.07,2.73-2.56,3.63-3.26,1.12-.88,2.9-.96,4.32-2.44,3.35-3.5.13-6.14.46-6.55,2.26-.01,2.55,2.56,3.56,3.92.89,1.19,3.03,4.18,3.98,4.99Z"></path>
  <path d="M660.03,412.74l.34,17.77c-1.96.82-1.79-1.68-2.34-1.79-1.57.61-3.69.21-5.08.49-3.07.61-8.4,2.74-11.54,3.98-1.07.42-8.39,3.45-8.46,3.91-.13.84,3.69,2.14,4.2,2.91,4.95,1.5,8.82,3.31,14,4.03,1.18.17,4.1.53,5.08.15,1.94-.74,1.69-7.26,5.17.18-3.7.36-1.51,5.63-2.28,8.35-1.85.05-1.6-2.38-3.1-3.42-1.15-.8-2.24-.45-3.14-.91-2.07-1.04-2.16-4.91-5.59.38-.85-2.53-2.86-5.33-5.9-4.91-1.23.17-.61,1.81-2.04,1.65l.71-2.14c-.07-1.7-5.27-2.47-6.74-3.09-.78-.33-1.33-1.07-1.99-1.33-2.07-.81-8.94-2.38-9.72-3.8-.71-1.29-.54-3.43-1.66-4.83.14-2.19,2.21-1.49,3.35-2.03,6.64-3.12,14.43-5.99,21.44-8.84,3.49-1.42,7.88-2.38,11.21-3.77,1.68-.7,2.07-3.1,4.09-2.97Z"></path>
  <path d="M623.1,551.18c-.86,1.62,2.08,3.01.49,4.22-1.91-1.02-3.66-2.41-5.62-3.34-1.1-.52-8.37-2.16-5.23-3.31,2.92-1.07,5.9,2.25,9.72.76.47-.18,4.11-1.86,4.31-1.99.43-.29,3.13-4.76,3.22-5.43.51-3.95-4.15-8.58-6.96-10.94-4.2-3.52-9.18-5.73-14.5-7.1-4.34-1.11-7.42-1.44-10.89,1.8s-3.51,6.93-1.37,10.84c.16.29,2.49,3.52,2.66,3.67,1.29,1.22,3.65.53,3.3,2.67-1.09,1.27-6.57-2.62-7.75-3.22-1.6-.81-3.01.18-3.72-2.44.59-1.26,1.63-.23,2.34-.62,1.78-.98.27-3.22.26-4.37-.04-8.91,8.25-17.21,16.66-19.15,6.13-1.42,15.84,3.23,19.7,8.09,1.51,1.89,4.78,9.14,4.82,11.33.07,3.87-3.08,11.83-5.29,15.11-1.99,2.95-2.95,2.44-6.15,3.43Z"></path>
  <path d="M501.34,198.26l-.24.96c-.71,0-1.26.18-1.83.6-2.09,1.51-3.81,10.51-4.77,13.37-1.88,5.6-4.58,14.42-7.06,19.46-3.63,7.34-12.06,8.05-19.12,6.2-1.04-.27-3.4-1.7-1.4-2.42s3.88,1.68,6.8-1.72c.83-.97,3.38-6.71,3.97-8.23,3.02-7.76,5.99-16.97,8.39-25.04.27-.9,1.12-1.81,1.25-2.52.35-1.91-.87-3.53-1.25-5.31.18-.2,4.86.63,5.36.79,2.01.63,5.65,2.22,7.58,3.17.72.35,1.51.64,2.32.7Z"></path>
  <path d="M501.15,226.33c-.14.11-2.19,2.39-2.37,2.65-.35.49-2.42,4.27-2.46,4.64-.23,1.84,1.45,2.81,2.17,4.29-1.19-.63-6.34-.82-6.74-1.02-.15-.08-1.63-2.48-1.81-2.84-.86-1.66,1.61-1.22,2.73-1.8.52-.27,5.02-3.52,6.01-4.26,3.5-2.6,6.08-6.91,8.99-9.72,1.76-1.7,5.75-4.1,7.7-5.91,1.34-1.25,3.22-4.3,4.6-5.01,1.89-.98,3.97,1.54,6.04,2.08,1.57,3-.34,6.05-.49,8.59-.52,8.63-2.72,18.79-2.36,27.51.07,1.77,1.75,4.3.14,5.96l-15.27-8.27c.02-1.84,2.26-1,3.26-1.67.65-.43,1.78-8.07,1.73-9.3-.16-3.81-1.95-2.61-3.85-3.84-2.26-1.47-4.53-4.87-8-2.08ZM511.74,217.28c-1.21.45-.91,2.01-1.6,2.68-.88.87-3.98,1.11-4,3.28,0,.84,4.83,5.03,6.28,4.53,1.44-.24,2.18-6.83,2.06-8.13-.14-1.55-1.06-2.99-2.74-2.36Z"></path>
  <path d="M207.11,556.65c-2.98-1.05-2.17-3.12-3-5.09-.99-2.35-3-5.66-4.34-7.96-1.23-2.12-4.27-3.96.74-4.75l.25,3.35c4.85,1.15,7.94-3.35,11.1-4.55s2.8-1.2,5.35-2.55c1.32-.7,4.34-.8,4.89-2.52.15-.46-.13-1.39,0-1.54.16-.18,1.43,0,2.01-.27.65-.29.94-1.15,1.43-1.26s1.36.3,2.32.04c1.23-.33,3.01-2.84,3.24-4.01.11-.53-1.59-5.43-1.96-6.09-1.37-2.43-6.74-3.59-9.29-3.17-1.85.3-3.34,1.84-4.92,2.52-.83.35-1.8.24-2.51.52-1.27.51-1.97,1.85-3.6,1.59,1.37-1.81,4.16-4.53,6.36-5.05,1.04-.25,2.02.23,3.09.03,1.61-.31,3.06-2.17,5.1-1.73.31.07,5.33,2.69,5.58,2.91,4.9,4.13,9.62,15.31,5.14,20.96-2.03,2.56-10.17,6.78-13.44,8.57-4.5,2.46-12.87,4.24-13.55,10.05Z"></path>
  <path d="M478.72,191.73c-5.64,1.15-4.16,8.36-6.58,12.5,1.14,3.36-.56,3.94-1,5.84-.28,1.21.15,2.38-.07,3.53-.49,2.66-2.92,6.48-2.99,10.01-.06,3.29,2.63,2.09,2.71,4.77l-2.36.94c-1.86-.89-3.96-1.02-5.81-1.54-.57-.16-1.14-1.09-2.02-1.3-.68-.16-9.25-.35-7.44-2.55,3.77.19,3.94-3.77,4.69-6.49,1.91-6.87,2.73-13.71,4.01-20.74.28-1.53,2.59-4.27,1.72-6.88-.26-.78-1.94-1.23-1.56-2.62,2.23-.53,3.84,1.37,5.87,1.77,2.57.51,6.31.63,8.82,1.21.52.12,2.23,1.24,2.01,1.56Z"></path>
  <path d="M182.64,354.45c-.46,2.8,2.09,3.36,4.31,4.1,6.34,2.12,13.1,3.26,19.47,4.98,2.27.61,7.28,3.05,9.32,2.25,1.17-.46,1.65-2.23,3.21-1.96.26.9-.62,1.46-.66,2.27-.05.87.59,1.46.26,2.97s-1.96,2.82-2.6,4.5c-.9,2.37-.05,6.01-2.53,6.55-.14-2.71-2.45-3.5-4.65-4.22-6.66-2.17-16.81-5.03-23.56-6.47-2.56-.55-5.4-.49-7.65.82-.29-.27.9-6.97,1.09-7.79.17-.7.84-1.38,1.07-2.21.58-2.06.39-5.92,2.93-5.76Z"></path>
  <path d="M370.84,669.24l-20.52-4.27c.63-3.26,4.23-1.07,6.19-3.84,1.15-1.63,3.71-14.03,3.83-16.45.04-.86-.56-1.67-.51-2.24.08-.81,1.68-1.42,1.62-2.56-.1-1.85-3.09-4.37-4.92-4.7.48-2.38,3.7-.41,5.28-.35,2.54.08,2.91.37,4.87.54,1.72.15,7.79-1.25,8.38.19.3.75-1.5,4.95-1.79,6.44-.74,3.79-1.42,7.94-2.36,11.86-.75,3.15-2.49,6.07-1.91,9.46.34,2.01,1.79,3.84,1.82,5.93Z"></path>
  <path d="M595.73,265.99c3.9-.84,8.27,2.62,7.74,6.68-.07.51-2.17,4.41-2.48,4.61-.6.41-1.56.33-2.31.69-.58.28-.92.91-1.74,1.19-.2.07-3.65.59-3.84.56-1.26-.21-2.91-1.69-1.44-1.99,1.09-.22,3.69,1.21,4.97-1.09.19-1.18-2.55-1.59-3-2.75-.66-1.69.07-4.32-.86-6.13.05-.66,2.34-1.64,2.97-1.78Z"></path>
  <path d="M642.67,545.21c-.76.79-2.32.86-3.02,2.1s-1.04,12.93-4.05,11.07c.13-1.52.76-5.23.49-6.49-.19-.91-1.16-1.39-1.36-2.04-.21-.69.27-1.74.04-2.67-.32-1.31-2.25-2.05-1.28-3.71.74-1.26,5.75-1.99,7.1-2.51.5-.19,8.44-6.74,7.94-3.02-.04.3-3.53,3.55-4.25,4.4s-1.08,2.31-1.61,2.87Z"></path>
  <path d="M208.35,520.96c-.93,2.91-4.75,2.82-6.42,4.09-.74.57-.86,1.69-1.31,2.01-1.07.75-4.38,0-4.99,2.87-.34,1.6,1.11,4.36-1.2,4.56-1.66-2.65-3.08-5.22-3.51-8.4,2.17.23,4.2.44,6.37-.1,4.61-1.15,5.94-5.76,11.06-5.02Z"></path>
  <path d="M308.77,217.21c-2.07.34-1.13-3.01-1.34-3.89-.72-3.09-4.46-.85-4.96-3.34,2.8-1.63,7-2.3,7.85-5.77.8-.43,3.53-.5,3.33.85-2.48,3.48-4.28,7.92-4.88,12.16Z"></path>
  <path d="M586.89,570.14l-2.38-.35c-.68-3.74,2.55-2.61,2.38.35Z"></path>
  <path d="M169.97,463.63l.17,2.39c-.37.5-3.55-1.05-2.32-2.24l2.15-.16Z"></path>
  <path d="M331.06,402.73c-.07-4.02,4.63-2.29,1.76-.49-.54.34-1.12.52-1.76.49Z"></path>
  <polygon points="575.51 506.99 575.43 508.93 573.78 509.52 573.6 507.13 575.51 506.99"></polygon>
  <rect x="335.79" y="590.45" width="1.44" height="2.4" transform="translate(-42.43 26.23) rotate(-4.2)"></rect>
  <path d="M453.5,234.96c-1.67.24-1.62-1.48-1.64-2.76,1.27.39,1.72,1.49,1.64,2.76Z"></path>
  <path d="M256.48,422.64c.52-.58,3.53,1.85,1.84,2.27-.97.24-2.1-1.97-1.84-2.27Z"></path>
  <path d="M378.93,189.44c-.86.99-3.07-1.3-1.33-1.82.99-.3,1.65,1.45,1.33,1.82Z"></path>
  <path d="M605.39,468.23s.14.98.08,1.19c-.42,1.52-2.85-.05-2-1.05.06-.07,1.84-.2,1.91-.14Z"></path>
  <path d="M559.04,564.49c-1.46.24-1.64-1.09-1.61-2.28,1.46-.24,1.64,1.09,1.61,2.28Z"></path>
  <path d="M583.65,276.89l-.05-.71c.65-2.11,4.67.47.05.71Z"></path>
  <path d="M339.9,431.43c.18.87.13,1.39-.58,1.95-.63-.57-1.45-.9-1.33-1.81l1.91-.14Z"></path>
  <path d="M582.38,626.77c-.86-.36-2.17-.6-2.05-1.77,1.43-.32,2.16.26,2.05,1.77Z"></path>
  <path d="M473.77,281.59c-.21,1.07-.74,1.69-1.77,2.05-.33-1.43.26-2.16,1.77-2.05Z"></path>
  <path d="M245.12,490.83c.68.58-.63,2.9-1.34,1.29-.61-1.37.95-1.63,1.34-1.29Z"></path>
  <polygon points="363.08 183.39 363.15 184.34 361.99 184.9 361.23 184.24 361.17 183.53 363.08 183.39"></polygon>
  <path d="M340.01,570.47l.04,1.38-1.32.64c-.27-1.13.07-2.05,1.29-2.02Z"></path>
  <path d="M674.18,389.08c.82.7-.51,2.24-1.33,1.54s.51-2.24,1.33-1.54Z"></path>
  <path d="M659.19,486.41c.3-.32,1.91.08,1.96.58.12,1.43-2.81.34-1.96-.58Z"></path>
  <polygon points="288.91 326.92 287.48 327.02 287.43 326.31 288.54 325.02 288.91 326.92"></polygon>
  <path d="M456.26,206.85c-.32-.3.08-1.91.58-1.95,1.43-.12.34,2.8-.58,1.95Z"></path>
  <path d="M226.65,488.34l-1.95-.34-.07-.95c1.13-.27,2.05.08,2.01,1.29Z"></path>
  <path d="M264.97,236.78l-.95.07c-.37-2.46,1.75-2.5.95-.07Z"></path>
  <path d="M270.54,220.97l-.95.07c-.37-2.46,1.75-2.5.95-.07Z"></path>
  <path d="M174.24,528.27l-.07-.95c2.46-.37,2.5,1.75.07.95Z"></path>
  <path d="M627.18,279.95l.11,1.43-1.43.11c-.22-.86.41-1.62,1.33-1.54Z"></path>
  <path d="M423.81,282.85c.37,2.46-1.75,2.5-.95.07l.95-.07Z"></path>
  <path d="M250.46,616.02c.12,1.76-1.29,1.86-1.43.11l1.43-.11Z"></path>
  <path d="M530.23,224.52c1.36-.29,2.55.33,1.3,1.33l-1.3-1.33Z"></path>
  <path d="M242.34,308.68l1.09-1.51.76.66c-.45.78-.97.91-1.85.85Z"></path>
  <path d="M491.11,176.87c.12,1.76-1.29,1.86-1.43.11l1.43-.11Z"></path>
  <path d="M625.09,572.64c.07.06,0,.32.04.47-.87.13-2.07.31-2.46-.77.49-.07,2.2.12,2.43.3Z"></path>
  <path d="M609.74,383.23l-.95.07c-.18-.87-.12-1.39.58-1.96l.37,1.89Z"></path>
  <polygon points="380.36 641.6 378.93 641.7 380.02 640.18 380.36 641.6"></polygon>
  <path d="M480.2,277.27l-.07-.95,1.4-.59c.23.86-.41,1.62-1.32,1.54Z"></path>
  <rect x="258.11" y="562.02" width=".95" height="1.43" transform="translate(-40.52 20.45) rotate(-4.2)"></rect>
  <path d="M561.82,589.3c-.67.78-2.15-1.27-.82-1.37.32-.02,1.07,1.08.82,1.37Z"></path>
  <rect x="254.19" y="613.77" width="1.44" height=".95" transform="translate(-44.3 20.32) rotate(-4.2)"></rect>
  <polygon points="271.31 244.49 269.86 244.36 271.2 243.06 271.31 244.49"></polygon>
  <rect x="411.76" y="242.79" width="1.44" height=".95" transform="translate(-16.71 30.86) rotate(-4.2)"></rect>
  <path d="M381.8,589.05c-.67.78-2.15-1.27-.82-1.37.32-.02,1.07,1.08.82,1.37Z"></path>
  <path d="M512.77,373.51c.67-.78,2.15,1.27.82,1.37-.32.02-1.07-1.08-.82-1.37Z"></path>
  <path d="M485.46,486.65c-.09.11-1.59.39-1.61-.47l-.54-2.74c.97.05,2.62,2.67,2.15,3.21Z"></path>
  <path d="M334.4,330.32c.32.3-.08,1.91-.58,1.95-1.43.12-.34-2.8.58-1.95Z"></path>
  <path d="M486.16,653.56l-.71.05-1.29-1.11.63-1.23c.86.6,1.48,1.17,1.37,2.29Z"></path>
</svg>